<?xml version="1.0" encoding="utf-8" standalone="no"?>
<!DOCTYPE svg PUBLIC "-//W3C//DTD SVG 1.1//EN"
  "http://www.w3.org/Graphics/SVG/1.1/DTD/svg11.dtd">
<!-- Created with matplotlib (https://matplotlib.org/) -->
<svg height="288pt" version="1.1" viewBox="0 0 432 288" width="432pt" xmlns="http://www.w3.org/2000/svg" xmlns:xlink="http://www.w3.org/1999/xlink">
 <defs>
  <style type="text/css">
*{stroke-linecap:butt;stroke-linejoin:round;white-space:pre;}
  </style>
 </defs>
 <g id="figure_1">
  <g id="patch_1">
   <path d="M 0 288 
L 432 288 
L 432 0 
L 0 0 
z
" style="fill:#ffffff;"/>
  </g>
  <g id="axes_1">
   <g id="patch_2">
    <path d="M 54 252 
L 388.8 252 
L 388.8 34.56 
L 54 34.56 
z
" style="fill:#ffffff;"/>
   </g>
   <g id="PolyCollection_1">
    <path clip-path="url(#p578d4dad70)" d="M 69.218545 146.259436 
L 69.218545 166.449982 
L 70.307631 127.730348 
L 71.366227 111.132662 
L 72.431133 114.949661 
L 73.495871 104.734643 
L 74.559944 92.594096 
L 75.616528 84.074968 
L 76.674967 86.568833 
L 77.736523 78.87385 
L 78.793443 81.774299 
L 79.851288 71.232334 
L 80.908966 73.266996 
L 81.965197 70.742829 
L 83.022897 66.994101 
L 84.083478 75.685193 
L 85.140356 65.809133 
L 86.198992 69.35894 
L 87.248517 64.306843 
L 88.304491 67.387934 
L 89.362157 65.205505 
L 90.418344 61.269357 
L 91.467099 62.224129 
L 92.520396 63.089331 
L 93.571413 64.68073 
L 94.615762 63.955467 
L 95.659585 55.124285 
L 96.687967 62.525414 
L 97.707236 62.773227 
L 98.725544 62.734296 
L 99.740557 61.731492 
L 100.754505 61.987702 
L 101.769997 49.457854 
L 102.787642 49.596044 
L 103.79446 49.092849 
L 104.801106 48.698019 
L 105.810386 49.063313 
L 106.826154 48.46269 
L 107.856286 48.204128 
L 108.896539 47.804772 
L 109.943853 48.894729 
L 110.998876 48.036304 
L 112.049054 48.686763 
L 113.098675 48.647045 
L 114.155969 48.520808 
L 115.201198 48.617684 
L 116.253319 49.519073 
L 117.299918 48.683986 
L 118.349613 49.005925 
L 119.397817 48.375058 
L 120.444029 47.468239 
L 121.501672 48.483678 
L 122.550178 48.605798 
L 123.596565 48.326448 
L 124.65298 48.741673 
L 125.698335 49.074551 
L 126.748095 48.716007 
L 127.796486 48.710081 
L 128.844693 48.319039 
L 129.893158 48.485041 
L 130.937177 49.160202 
L 131.981893 47.876275 
L 133.029434 48.461053 
L 134.078254 48.83225 
L 135.134811 48.9989 
L 136.189271 48.607371 
L 137.23496 49.270718 
L 138.288317 49.361195 
L 139.333152 48.792229 
L 140.376887 49.357956 
L 141.425139 48.281545 
L 142.470579 48.002137 
L 143.514979 47.996103 
L 144.56527 48.047506 
L 145.619571 47.99428 
L 146.661864 47.758789 
L 147.708503 47.988615 
L 148.753464 47.92412 
L 149.794924 48.257232 
L 150.840853 48.740327 
L 151.884987 48.665374 
L 152.932136 48.547311 
L 153.980343 48.443748 
L 155.021407 47.871692 
L 156.072206 48.394836 
L 157.118104 48.656467 
L 158.168739 49.049823 
L 159.214683 48.731097 
L 159.214683 47.069149 
L 159.214683 47.069149 
L 158.168739 47.208863 
L 157.118104 46.226897 
L 156.072206 45.899119 
L 155.021407 45.963822 
L 153.980343 45.784705 
L 152.932136 46.72903 
L 151.884987 46.610967 
L 150.840853 46.601478 
L 149.794924 46.495165 
L 148.753464 46.107863 
L 147.708503 46.108871 
L 146.661864 45.94572 
L 145.619571 46.16867 
L 144.56527 46.377416 
L 143.514979 46.297853 
L 142.470579 45.374936 
L 141.425139 45.750438 
L 140.376887 46.24582 
L 139.333152 45.370721 
L 138.288317 46.373588 
L 137.23496 45.809115 
L 136.189271 45.031674 
L 135.134811 44.443636 
L 134.078254 46.706024 
L 133.029434 46.356847 
L 131.981893 46.221211 
L 130.937177 47.163988 
L 129.893158 45.874417 
L 128.844693 45.647442 
L 127.796486 46.500757 
L 126.748095 46.429328 
L 125.698335 45.808812 
L 124.65298 45.879718 
L 123.596565 46.098475 
L 122.550178 45.75366 
L 121.501672 45.024361 
L 120.444029 45.712365 
L 119.397817 46.377339 
L 118.349613 46.663354 
L 117.299918 46.461349 
L 116.253319 46.805117 
L 115.201198 46.724121 
L 114.155969 46.69003 
L 113.098675 46.891229 
L 112.049054 46.00013 
L 110.998876 46.323155 
L 109.943853 47.494964 
L 108.896539 46.358178 
L 107.856286 47.137677 
L 106.826154 47.20659 
L 105.810386 46.998905 
L 104.801106 46.971261 
L 103.79446 46.969369 
L 102.787642 47.579564 
L 101.769997 47.324777 
L 100.754505 53.263664 
L 99.740557 50.769188 
L 98.725544 52.451568 
L 97.707236 51.233782 
L 96.687967 52.332975 
L 95.659585 50.499775 
L 94.615762 55.487374 
L 93.571413 53.059312 
L 92.520396 54.38874 
L 91.467099 49.294204 
L 90.418344 50.838384 
L 89.362157 54.040866 
L 88.304491 51.072522 
L 87.248517 55.594439 
L 86.198992 52.507113 
L 85.140356 58.152657 
L 84.083478 61.374965 
L 83.022897 54.348008 
L 81.965197 56.886492 
L 80.908966 61.500955 
L 79.851288 60.326489 
L 78.793443 68.122254 
L 77.736523 64.604525 
L 76.674967 58.481335 
L 75.616528 63.594882 
L 74.559944 64.179115 
L 73.495871 66.643266 
L 72.431133 72.67024 
L 71.366227 79.892837 
L 70.307631 104.031079 
L 69.218545 146.259436 
z
" style="fill:#1f77b4;fill-opacity:0.5;"/>
   </g>
   <g id="PolyCollection_2">
    <path clip-path="url(#p578d4dad70)" d="M 69.218182 190.887751 
L 69.218182 221.434864 
L 69.218256 182.160115 
L 71.310484 160.268658 
L 73.29451 144.090171 
L 75.249457 131.910399 
L 77.200207 129.996748 
L 79.151061 111.019839 
L 81.08795 109.781853 
L 83.032882 109.509818 
L 84.961682 95.124333 
L 86.877199 102.013135 
L 88.684775 101.628571 
L 90.444766 90.725507 
L 92.184377 86.178609 
L 93.910538 88.225999 
L 95.621176 86.640718 
L 97.341707 84.372805 
L 99.057803 95.835521 
L 100.777484 84.230592 
L 102.493564 85.346209 
L 104.214626 77.74216 
L 105.933117 81.054463 
L 107.650181 84.949495 
L 109.372831 79.003177 
L 111.093442 73.238194 
L 112.827223 73.281178 
L 114.562416 73.470261 
L 116.30579 71.692519 
L 118.062648 72.230849 
L 119.820998 72.941696 
L 121.578741 76.035267 
L 123.361732 61.433061 
L 125.119949 60.216142 
L 126.888302 60.76018 
L 128.659526 61.019875 
L 130.435487 60.801843 
L 132.208893 60.635299 
L 133.98445 59.811854 
L 135.777618 60.168942 
L 137.566625 60.342054 
L 139.358439 61.540656 
L 141.15906 59.630659 
L 142.971646 60.249257 
L 144.787707 60.083428 
L 146.613655 60.251011 
L 148.429909 60.04 
L 150.255986 58.645345 
L 152.085833 60.39461 
L 153.922655 60.183335 
L 155.766794 60.029894 
L 157.629994 60.070622 
L 159.51474 60.007547 
L 161.397475 60.22152 
L 163.300642 59.319942 
L 165.196049 60.370973 
L 167.102866 58.603846 
L 169.000502 60.08743 
L 170.903528 60.375096 
L 172.829948 60.253949 
L 174.741742 59.300645 
L 176.662911 60.075876 
L 178.591541 60.888335 
L 180.515102 60.628247 
L 182.446401 59.260952 
L 184.394571 60.820504 
L 186.352654 60.171878 
L 188.298848 60.559281 
L 190.240737 58.9853 
L 192.188324 58.671385 
L 194.143196 58.91822 
L 196.095963 59.850708 
L 198.048833 57.686222 
L 199.995364 57.666913 
L 201.924124 58.246914 
L 203.847375 58.2284 
L 205.773469 57.813517 
L 207.699425 57.94987 
L 209.61556 57.860745 
L 211.566832 57.69365 
L 213.528114 58.204272 
L 215.482267 58.099218 
L 217.446488 58.049515 
L 219.404318 58.124197 
L 221.353957 57.859488 
L 223.316289 58.429857 
L 225.277812 58.492033 
L 227.23356 58.131821 
L 227.23356 55.875188 
L 227.23356 55.875188 
L 225.277812 56.23539 
L 223.316289 56.035594 
L 221.353957 55.623578 
L 219.404318 55.882812 
L 217.446488 55.695522 
L 215.482267 56.30073 
L 213.528114 55.933704 
L 211.566832 55.789415 
L 209.61556 56.211768 
L 207.699425 55.533195 
L 205.773469 55.669549 
L 203.847375 55.844113 
L 201.924124 55.825599 
L 199.995364 55.226744 
L 198.048833 56.255285 
L 196.095963 57.627363 
L 194.143196 57.577465 
L 192.188324 55.597597 
L 190.240737 56.266067 
L 188.298848 57.442734 
L 186.352654 58.026605 
L 184.394571 58.622337 
L 182.446401 55.008029 
L 180.515102 57.897712 
L 178.591541 56.131294 
L 176.662911 55.17549 
L 174.741742 55.426778 
L 172.829948 57.617099 
L 170.903528 57.364946 
L 169.000502 56.408255 
L 167.102866 56.385549 
L 165.196049 57.82751 
L 163.300642 56.389866 
L 161.397475 56.798109 
L 159.51474 56.160702 
L 157.629994 56.556068 
L 155.766794 56.727764 
L 153.922655 56.31235 
L 152.085833 56.559517 
L 150.255986 57.326435 
L 148.429909 56.062747 
L 146.613655 57.6855 
L 144.787707 56.412257 
L 142.971646 55.85349 
L 141.15906 57.192501 
L 139.358439 58.295124 
L 137.566625 58.51134 
L 135.777618 56.916189 
L 133.98445 57.731719 
L 132.208893 58.54557 
L 130.435487 57.855082 
L 128.659526 58.750402 
L 126.888302 58.944633 
L 125.119949 58.506286 
L 123.361732 59.843545 
L 121.578741 65.478337 
L 119.820998 63.136076 
L 118.062648 65.746191 
L 116.30579 63.992315 
L 114.562416 68.239812 
L 112.827223 65.809214 
L 111.093442 62.905081 
L 109.372831 68.470203 
L 107.650181 71.430778 
L 105.933117 72.182185 
L 104.214626 67.831952 
L 102.493564 75.291041 
L 100.777484 74.179916 
L 99.057803 89.950616 
L 97.341707 68.077965 
L 95.621176 78.057 
L 93.910538 79.418876 
L 92.184377 78.977591 
L 90.444766 82.093228 
L 88.684775 72.761957 
L 86.877199 85.148325 
L 84.961682 83.2612 
L 83.032882 106.468097 
L 81.08795 96.896191 
L 79.151061 98.081417 
L 77.200207 100.782332 
L 75.249457 107.972044 
L 73.29451 129.062134 
L 71.310484 139.407896 
L 69.218256 156.222133 
L 69.218182 190.887751 
z
" style="fill:#ff7f0e;fill-opacity:0.5;"/>
   </g>
   <g id="PolyCollection_3">
    <path clip-path="url(#p578d4dad70)" d="M 69.218182 197.843832 
L 69.218182 242.116364 
L 73.600547 180.881416 
L 77.46214 167.291876 
L 81.154146 140.931404 
L 84.739707 132.548416 
L 88.287411 117.059588 
L 91.850025 104.845313 
L 95.400663 97.739472 
L 98.949779 103.404505 
L 102.41709 89.422007 
L 105.923002 91.943414 
L 109.330095 90.044166 
L 112.749216 87.784711 
L 116.135976 94.595867 
L 119.546651 86.311113 
L 122.961988 82.283357 
L 126.366655 80.122156 
L 129.77715 84.477348 
L 133.187018 93.220543 
L 136.604272 77.371469 
L 140.014086 75.21021 
L 143.431251 74.358869 
L 146.831214 74.227844 
L 150.247966 76.323581 
L 153.774278 70.593065 
L 157.575723 75.537723 
L 161.60516 72.00114 
L 165.803124 73.441967 
L 169.755318 69.348707 
L 173.454111 69.938135 
L 177.145989 69.774417 
L 180.901252 61.980876 
L 184.790453 61.587937 
L 188.665214 59.72144 
L 192.651457 59.68863 
L 196.581669 58.116856 
L 200.653438 58.509834 
L 204.47286 59.917909 
L 207.898672 57.822153 
L 211.269503 58.673532 
L 214.855862 58.640801 
L 218.255325 57.167242 
L 221.673413 58.640801 
L 225.075666 58.575298 
L 228.472533 58.542527 
L 231.874774 60.671035 
L 235.269566 59.524932 
L 238.657974 57.036237 
L 242.0584 57.527429 
L 245.485548 58.804518 
L 248.903692 57.5602 
L 252.339364 61.194979 
L 255.767593 57.920407 
L 259.219826 57.953158 
L 262.638533 56.839787 
L 266.010188 57.494678 
L 269.397173 58.247843 
L 272.7514 58.902753 
L 276.115836 58.509834 
L 279.504976 58.608069 
L 282.886702 59.295731 
L 286.283845 57.494717 
L 289.683531 58.968275 
L 293.055776 57.723938 
L 296.44214 56.643317 
L 299.819498 57.75665 
L 303.217523 59.950661 
L 306.664121 56.839767 
L 310.098138 58.084105 
L 313.520894 57.461946 
L 316.941991 61.063993 
L 320.419706 56.741552 
L 323.924469 56.807035 
L 327.452182 56.053871 
L 330.979579 56.741552 
L 334.520418 58.509815 
L 338.052035 56.315823 
L 341.60322 57.723918 
L 345.135064 57.069007 
L 348.679249 57.494697 
L 352.22684 57.134491 
L 355.786645 57.036217 
L 359.34601 57.13451 
L 362.907519 57.396463 
L 366.46689 56.577795 
L 370.030929 56.021139 
L 373.581818 57.036237 
L 373.581818 55.202471 
L 373.581818 55.202471 
L 370.030929 55.759128 
L 366.46689 54.482097 
L 362.907519 54.121871 
L 359.34601 54.907728 
L 355.786645 55.464463 
L 352.22684 55.16972 
L 348.679249 55.136988 
L 345.135064 55.497175 
L 341.60322 54.842265 
L 338.052035 55.529946 
L 334.520418 54.711279 
L 330.979579 55.693664 
L 327.452182 56.053871 
L 323.924469 55.890153 
L 320.419706 56.086603 
L 316.941991 53.204988 
L 313.520894 56.938002 
L 310.098138 56.381345 
L 306.664121 55.922885 
L 303.217523 55.497175 
L 299.819498 55.529946 
L 296.44214 56.381307 
L 293.055776 56.152105 
L 289.683531 55.562678 
L 286.283845 56.184818 
L 282.886702 53.925363 
L 279.504976 54.154583 
L 276.115836 54.973231 
L 272.7514 55.366228 
L 269.397173 54.580312 
L 266.010188 56.184857 
L 262.638533 55.660893 
L 259.219826 55.726376 
L 255.767593 56.348575 
L 252.339364 53.335974 
L 248.903692 55.595429 
L 245.485548 54.74405 
L 242.0584 56.741552 
L 238.657974 56.643298 
L 235.269566 54.023636 
L 231.874774 55.693684 
L 228.472533 56.05389 
L 225.075666 54.12189 
L 221.673413 54.842265 
L 218.255325 56.643298 
L 214.855862 57.199974 
L 211.269503 56.970773 
L 207.898672 55.988387 
L 204.47286 55.988368 
L 200.653438 56.938002 
L 196.581669 57.199974 
L 192.651457 56.807055 
L 188.665214 57.625664 
L 184.790453 56.872519 
L 180.901252 57.396463 
L 177.145989 65.582942 
L 173.454111 63.650962 
L 169.755318 68.56283 
L 165.803124 63.618191 
L 161.60516 70.167375 
L 157.575723 67.416708 
L 153.774278 66.008652 
L 150.247966 67.678699 
L 146.831214 68.857554 
L 143.431251 72.394098 
L 140.014086 72.328634 
L 136.604272 71.870173 
L 133.187018 68.595562 
L 129.77715 73.212746 
L 126.366655 73.965911 
L 122.961988 72.197648 
L 119.546651 73.343751 
L 116.135976 76.651075 
L 112.749216 85.81994 
L 109.330095 75.897911 
L 105.923002 87.097068 
L 102.41709 88.374119 
L 98.949779 76.290888 
L 95.400663 96.298646 
L 91.850025 101.439793 
L 88.287411 106.056919 
L 84.739707 102.815078 
L 81.154146 131.238556 
L 77.46214 147.382314 
L 73.600547 177.213886 
L 69.218182 197.843832 
z
" style="fill:#2ca02c;fill-opacity:0.5;"/>
   </g>
   <g id="matplotlib.axis_1">
    <g id="xtick_1">
     <g id="line2d_1">
      <path clip-path="url(#p578d4dad70)" d="M 69.218182 252 
L 69.218182 34.56 
" style="fill:none;stroke:#b0b0b0;stroke-linecap:square;stroke-width:0.8;"/>
     </g>
     <g id="line2d_2">
      <defs>
       <path d="M 0 0 
L 0 3.5 
" id="md0838a9cfd" style="stroke:#000000;stroke-width:0.8;"/>
      </defs>
      <g>
       <use style="stroke:#000000;stroke-width:0.8;" x="69.218182" xlink:href="#md0838a9cfd" y="252"/>
      </g>
     </g>
     <g id="text_1">
      <!-- 0 -->
      <defs>
       <path d="M 31.78125 66.40625 
Q 24.171875 66.40625 20.328125 58.90625 
Q 16.5 51.421875 16.5 36.375 
Q 16.5 21.390625 20.328125 13.890625 
Q 24.171875 6.390625 31.78125 6.390625 
Q 39.453125 6.390625 43.28125 13.890625 
Q 47.125 21.390625 47.125 36.375 
Q 47.125 51.421875 43.28125 58.90625 
Q 39.453125 66.40625 31.78125 66.40625 
z
M 31.78125 74.21875 
Q 44.046875 74.21875 50.515625 64.515625 
Q 56.984375 54.828125 56.984375 36.375 
Q 56.984375 17.96875 50.515625 8.265625 
Q 44.046875 -1.421875 31.78125 -1.421875 
Q 19.53125 -1.421875 13.0625 8.265625 
Q 6.59375 17.96875 6.59375 36.375 
Q 6.59375 54.828125 13.0625 64.515625 
Q 19.53125 74.21875 31.78125 74.21875 
z
" id="DejaVuSans-48"/>
      </defs>
      <g transform="translate(62.855682 274.196875)scale(0.2 -0.2)">
       <use xlink:href="#DejaVuSans-48"/>
      </g>
     </g>
    </g>
    <g id="xtick_2">
     <g id="line2d_3">
      <path clip-path="url(#p578d4dad70)" d="M 158.971462 252 
L 158.971462 34.56 
" style="fill:none;stroke:#b0b0b0;stroke-linecap:square;stroke-width:0.8;"/>
     </g>
     <g id="line2d_4">
      <g>
       <use style="stroke:#000000;stroke-width:0.8;" x="158.971462" xlink:href="#md0838a9cfd" y="252"/>
      </g>
     </g>
     <g id="text_2">
      <!-- 10 -->
      <defs>
       <path d="M 12.40625 8.296875 
L 28.515625 8.296875 
L 28.515625 63.921875 
L 10.984375 60.40625 
L 10.984375 69.390625 
L 28.421875 72.90625 
L 38.28125 72.90625 
L 38.28125 8.296875 
L 54.390625 8.296875 
L 54.390625 0 
L 12.40625 0 
z
" id="DejaVuSans-49"/>
      </defs>
      <g transform="translate(146.246462 274.196875)scale(0.2 -0.2)">
       <use xlink:href="#DejaVuSans-49"/>
       <use x="63.623047" xlink:href="#DejaVuSans-48"/>
      </g>
     </g>
    </g>
    <g id="xtick_3">
     <g id="line2d_5">
      <path clip-path="url(#p578d4dad70)" d="M 248.724743 252 
L 248.724743 34.56 
" style="fill:none;stroke:#b0b0b0;stroke-linecap:square;stroke-width:0.8;"/>
     </g>
     <g id="line2d_6">
      <g>
       <use style="stroke:#000000;stroke-width:0.8;" x="248.724743" xlink:href="#md0838a9cfd" y="252"/>
      </g>
     </g>
     <g id="text_3">
      <!-- 20 -->
      <defs>
       <path d="M 19.1875 8.296875 
L 53.609375 8.296875 
L 53.609375 0 
L 7.328125 0 
L 7.328125 8.296875 
Q 12.9375 14.109375 22.625 23.890625 
Q 32.328125 33.6875 34.8125 36.53125 
Q 39.546875 41.84375 41.421875 45.53125 
Q 43.3125 49.21875 43.3125 52.78125 
Q 43.3125 58.59375 39.234375 62.25 
Q 35.15625 65.921875 28.609375 65.921875 
Q 23.96875 65.921875 18.8125 64.3125 
Q 13.671875 62.703125 7.8125 59.421875 
L 7.8125 69.390625 
Q 13.765625 71.78125 18.9375 73 
Q 24.125 74.21875 28.421875 74.21875 
Q 39.75 74.21875 46.484375 68.546875 
Q 53.21875 62.890625 53.21875 53.421875 
Q 53.21875 48.921875 51.53125 44.890625 
Q 49.859375 40.875 45.40625 35.40625 
Q 44.1875 33.984375 37.640625 27.21875 
Q 31.109375 20.453125 19.1875 8.296875 
z
" id="DejaVuSans-50"/>
      </defs>
      <g transform="translate(235.999743 274.196875)scale(0.2 -0.2)">
       <use xlink:href="#DejaVuSans-50"/>
       <use x="63.623047" xlink:href="#DejaVuSans-48"/>
      </g>
     </g>
    </g>
    <g id="xtick_4">
     <g id="line2d_7">
      <path clip-path="url(#p578d4dad70)" d="M 338.478023 252 
L 338.478023 34.56 
" style="fill:none;stroke:#b0b0b0;stroke-linecap:square;stroke-width:0.8;"/>
     </g>
     <g id="line2d_8">
      <g>
       <use style="stroke:#000000;stroke-width:0.8;" x="338.478023" xlink:href="#md0838a9cfd" y="252"/>
      </g>
     </g>
     <g id="text_4">
      <!-- 30 -->
      <defs>
       <path d="M 40.578125 39.3125 
Q 47.65625 37.796875 51.625 33 
Q 55.609375 28.21875 55.609375 21.1875 
Q 55.609375 10.40625 48.1875 4.484375 
Q 40.765625 -1.421875 27.09375 -1.421875 
Q 22.515625 -1.421875 17.65625 -0.515625 
Q 12.796875 0.390625 7.625 2.203125 
L 7.625 11.71875 
Q 11.71875 9.328125 16.59375 8.109375 
Q 21.484375 6.890625 26.8125 6.890625 
Q 36.078125 6.890625 40.9375 10.546875 
Q 45.796875 14.203125 45.796875 21.1875 
Q 45.796875 27.640625 41.28125 31.265625 
Q 36.765625 34.90625 28.71875 34.90625 
L 20.21875 34.90625 
L 20.21875 43.015625 
L 29.109375 43.015625 
Q 36.375 43.015625 40.234375 45.921875 
Q 44.09375 48.828125 44.09375 54.296875 
Q 44.09375 59.90625 40.109375 62.90625 
Q 36.140625 65.921875 28.71875 65.921875 
Q 24.65625 65.921875 20.015625 65.03125 
Q 15.375 64.15625 9.8125 62.3125 
L 9.8125 71.09375 
Q 15.4375 72.65625 20.34375 73.4375 
Q 25.25 74.21875 29.59375 74.21875 
Q 40.828125 74.21875 47.359375 69.109375 
Q 53.90625 64.015625 53.90625 55.328125 
Q 53.90625 49.265625 50.4375 45.09375 
Q 46.96875 40.921875 40.578125 39.3125 
z
" id="DejaVuSans-51"/>
      </defs>
      <g transform="translate(325.753023 274.196875)scale(0.2 -0.2)">
       <use xlink:href="#DejaVuSans-51"/>
       <use x="63.623047" xlink:href="#DejaVuSans-48"/>
      </g>
     </g>
    </g>
    <g id="text_5">
     <!-- Training Time for 90 Epochs (hours) -->
     <defs>
      <path d="M -0.296875 72.90625 
L 61.375 72.90625 
L 61.375 64.59375 
L 35.5 64.59375 
L 35.5 0 
L 25.59375 0 
L 25.59375 64.59375 
L -0.296875 64.59375 
z
" id="DejaVuSans-84"/>
      <path d="M 41.109375 46.296875 
Q 39.59375 47.171875 37.8125 47.578125 
Q 36.03125 48 33.890625 48 
Q 26.265625 48 22.1875 43.046875 
Q 18.109375 38.09375 18.109375 28.8125 
L 18.109375 0 
L 9.078125 0 
L 9.078125 54.6875 
L 18.109375 54.6875 
L 18.109375 46.1875 
Q 20.953125 51.171875 25.484375 53.578125 
Q 30.03125 56 36.53125 56 
Q 37.453125 56 38.578125 55.875 
Q 39.703125 55.765625 41.0625 55.515625 
z
" id="DejaVuSans-114"/>
      <path d="M 34.28125 27.484375 
Q 23.390625 27.484375 19.1875 25 
Q 14.984375 22.515625 14.984375 16.5 
Q 14.984375 11.71875 18.140625 8.90625 
Q 21.296875 6.109375 26.703125 6.109375 
Q 34.1875 6.109375 38.703125 11.40625 
Q 43.21875 16.703125 43.21875 25.484375 
L 43.21875 27.484375 
z
M 52.203125 31.203125 
L 52.203125 0 
L 43.21875 0 
L 43.21875 8.296875 
Q 40.140625 3.328125 35.546875 0.953125 
Q 30.953125 -1.421875 24.3125 -1.421875 
Q 15.921875 -1.421875 10.953125 3.296875 
Q 6 8.015625 6 15.921875 
Q 6 25.140625 12.171875 29.828125 
Q 18.359375 34.515625 30.609375 34.515625 
L 43.21875 34.515625 
L 43.21875 35.40625 
Q 43.21875 41.609375 39.140625 45 
Q 35.0625 48.390625 27.6875 48.390625 
Q 23 48.390625 18.546875 47.265625 
Q 14.109375 46.140625 10.015625 43.890625 
L 10.015625 52.203125 
Q 14.9375 54.109375 19.578125 55.046875 
Q 24.21875 56 28.609375 56 
Q 40.484375 56 46.34375 49.84375 
Q 52.203125 43.703125 52.203125 31.203125 
z
" id="DejaVuSans-97"/>
      <path d="M 9.421875 54.6875 
L 18.40625 54.6875 
L 18.40625 0 
L 9.421875 0 
z
M 9.421875 75.984375 
L 18.40625 75.984375 
L 18.40625 64.59375 
L 9.421875 64.59375 
z
" id="DejaVuSans-105"/>
      <path d="M 54.890625 33.015625 
L 54.890625 0 
L 45.90625 0 
L 45.90625 32.71875 
Q 45.90625 40.484375 42.875 44.328125 
Q 39.84375 48.1875 33.796875 48.1875 
Q 26.515625 48.1875 22.3125 43.546875 
Q 18.109375 38.921875 18.109375 30.90625 
L 18.109375 0 
L 9.078125 0 
L 9.078125 54.6875 
L 18.109375 54.6875 
L 18.109375 46.1875 
Q 21.34375 51.125 25.703125 53.5625 
Q 30.078125 56 35.796875 56 
Q 45.21875 56 50.046875 50.171875 
Q 54.890625 44.34375 54.890625 33.015625 
z
" id="DejaVuSans-110"/>
      <path d="M 45.40625 27.984375 
Q 45.40625 37.75 41.375 43.109375 
Q 37.359375 48.484375 30.078125 48.484375 
Q 22.859375 48.484375 18.828125 43.109375 
Q 14.796875 37.75 14.796875 27.984375 
Q 14.796875 18.265625 18.828125 12.890625 
Q 22.859375 7.515625 30.078125 7.515625 
Q 37.359375 7.515625 41.375 12.890625 
Q 45.40625 18.265625 45.40625 27.984375 
z
M 54.390625 6.78125 
Q 54.390625 -7.171875 48.1875 -13.984375 
Q 42 -20.796875 29.203125 -20.796875 
Q 24.46875 -20.796875 20.265625 -20.09375 
Q 16.0625 -19.390625 12.109375 -17.921875 
L 12.109375 -9.1875 
Q 16.0625 -11.328125 19.921875 -12.34375 
Q 23.78125 -13.375 27.78125 -13.375 
Q 36.625 -13.375 41.015625 -8.765625 
Q 45.40625 -4.15625 45.40625 5.171875 
L 45.40625 9.625 
Q 42.625 4.78125 38.28125 2.390625 
Q 33.9375 0 27.875 0 
Q 17.828125 0 11.671875 7.65625 
Q 5.515625 15.328125 5.515625 27.984375 
Q 5.515625 40.671875 11.671875 48.328125 
Q 17.828125 56 27.875 56 
Q 33.9375 56 38.28125 53.609375 
Q 42.625 51.21875 45.40625 46.390625 
L 45.40625 54.6875 
L 54.390625 54.6875 
z
" id="DejaVuSans-103"/>
      <path id="DejaVuSans-32"/>
      <path d="M 52 44.1875 
Q 55.375 50.25 60.0625 53.125 
Q 64.75 56 71.09375 56 
Q 79.640625 56 84.28125 50.015625 
Q 88.921875 44.046875 88.921875 33.015625 
L 88.921875 0 
L 79.890625 0 
L 79.890625 32.71875 
Q 79.890625 40.578125 77.09375 44.375 
Q 74.3125 48.1875 68.609375 48.1875 
Q 61.625 48.1875 57.5625 43.546875 
Q 53.515625 38.921875 53.515625 30.90625 
L 53.515625 0 
L 44.484375 0 
L 44.484375 32.71875 
Q 44.484375 40.625 41.703125 44.40625 
Q 38.921875 48.1875 33.109375 48.1875 
Q 26.21875 48.1875 22.15625 43.53125 
Q 18.109375 38.875 18.109375 30.90625 
L 18.109375 0 
L 9.078125 0 
L 9.078125 54.6875 
L 18.109375 54.6875 
L 18.109375 46.1875 
Q 21.1875 51.21875 25.484375 53.609375 
Q 29.78125 56 35.6875 56 
Q 41.65625 56 45.828125 52.96875 
Q 50 49.953125 52 44.1875 
z
" id="DejaVuSans-109"/>
      <path d="M 56.203125 29.59375 
L 56.203125 25.203125 
L 14.890625 25.203125 
Q 15.484375 15.921875 20.484375 11.0625 
Q 25.484375 6.203125 34.421875 6.203125 
Q 39.59375 6.203125 44.453125 7.46875 
Q 49.3125 8.734375 54.109375 11.28125 
L 54.109375 2.78125 
Q 49.265625 0.734375 44.1875 -0.34375 
Q 39.109375 -1.421875 33.890625 -1.421875 
Q 20.796875 -1.421875 13.15625 6.1875 
Q 5.515625 13.8125 5.515625 26.8125 
Q 5.515625 40.234375 12.765625 48.109375 
Q 20.015625 56 32.328125 56 
Q 43.359375 56 49.78125 48.890625 
Q 56.203125 41.796875 56.203125 29.59375 
z
M 47.21875 32.234375 
Q 47.125 39.59375 43.09375 43.984375 
Q 39.0625 48.390625 32.421875 48.390625 
Q 24.90625 48.390625 20.390625 44.140625 
Q 15.875 39.890625 15.1875 32.171875 
z
" id="DejaVuSans-101"/>
      <path d="M 37.109375 75.984375 
L 37.109375 68.5 
L 28.515625 68.5 
Q 23.6875 68.5 21.796875 66.546875 
Q 19.921875 64.59375 19.921875 59.515625 
L 19.921875 54.6875 
L 34.71875 54.6875 
L 34.71875 47.703125 
L 19.921875 47.703125 
L 19.921875 0 
L 10.890625 0 
L 10.890625 47.703125 
L 2.296875 47.703125 
L 2.296875 54.6875 
L 10.890625 54.6875 
L 10.890625 58.5 
Q 10.890625 67.625 15.140625 71.796875 
Q 19.390625 75.984375 28.609375 75.984375 
z
" id="DejaVuSans-102"/>
      <path d="M 30.609375 48.390625 
Q 23.390625 48.390625 19.1875 42.75 
Q 14.984375 37.109375 14.984375 27.296875 
Q 14.984375 17.484375 19.15625 11.84375 
Q 23.34375 6.203125 30.609375 6.203125 
Q 37.796875 6.203125 41.984375 11.859375 
Q 46.1875 17.53125 46.1875 27.296875 
Q 46.1875 37.015625 41.984375 42.703125 
Q 37.796875 48.390625 30.609375 48.390625 
z
M 30.609375 56 
Q 42.328125 56 49.015625 48.375 
Q 55.71875 40.765625 55.71875 27.296875 
Q 55.71875 13.875 49.015625 6.21875 
Q 42.328125 -1.421875 30.609375 -1.421875 
Q 18.84375 -1.421875 12.171875 6.21875 
Q 5.515625 13.875 5.515625 27.296875 
Q 5.515625 40.765625 12.171875 48.375 
Q 18.84375 56 30.609375 56 
z
" id="DejaVuSans-111"/>
      <path d="M 10.984375 1.515625 
L 10.984375 10.5 
Q 14.703125 8.734375 18.5 7.8125 
Q 22.3125 6.890625 25.984375 6.890625 
Q 35.75 6.890625 40.890625 13.453125 
Q 46.046875 20.015625 46.78125 33.40625 
Q 43.953125 29.203125 39.59375 26.953125 
Q 35.25 24.703125 29.984375 24.703125 
Q 19.046875 24.703125 12.671875 31.3125 
Q 6.296875 37.9375 6.296875 49.421875 
Q 6.296875 60.640625 12.9375 67.421875 
Q 19.578125 74.21875 30.609375 74.21875 
Q 43.265625 74.21875 49.921875 64.515625 
Q 56.59375 54.828125 56.59375 36.375 
Q 56.59375 19.140625 48.40625 8.859375 
Q 40.234375 -1.421875 26.421875 -1.421875 
Q 22.703125 -1.421875 18.890625 -0.6875 
Q 15.09375 0.046875 10.984375 1.515625 
z
M 30.609375 32.421875 
Q 37.25 32.421875 41.125 36.953125 
Q 45.015625 41.5 45.015625 49.421875 
Q 45.015625 57.28125 41.125 61.84375 
Q 37.25 66.40625 30.609375 66.40625 
Q 23.96875 66.40625 20.09375 61.84375 
Q 16.21875 57.28125 16.21875 49.421875 
Q 16.21875 41.5 20.09375 36.953125 
Q 23.96875 32.421875 30.609375 32.421875 
z
" id="DejaVuSans-57"/>
      <path d="M 9.8125 72.90625 
L 55.90625 72.90625 
L 55.90625 64.59375 
L 19.671875 64.59375 
L 19.671875 43.015625 
L 54.390625 43.015625 
L 54.390625 34.71875 
L 19.671875 34.71875 
L 19.671875 8.296875 
L 56.78125 8.296875 
L 56.78125 0 
L 9.8125 0 
z
" id="DejaVuSans-69"/>
      <path d="M 18.109375 8.203125 
L 18.109375 -20.796875 
L 9.078125 -20.796875 
L 9.078125 54.6875 
L 18.109375 54.6875 
L 18.109375 46.390625 
Q 20.953125 51.265625 25.265625 53.625 
Q 29.59375 56 35.59375 56 
Q 45.5625 56 51.78125 48.09375 
Q 58.015625 40.1875 58.015625 27.296875 
Q 58.015625 14.40625 51.78125 6.484375 
Q 45.5625 -1.421875 35.59375 -1.421875 
Q 29.59375 -1.421875 25.265625 0.953125 
Q 20.953125 3.328125 18.109375 8.203125 
z
M 48.6875 27.296875 
Q 48.6875 37.203125 44.609375 42.84375 
Q 40.53125 48.484375 33.40625 48.484375 
Q 26.265625 48.484375 22.1875 42.84375 
Q 18.109375 37.203125 18.109375 27.296875 
Q 18.109375 17.390625 22.1875 11.75 
Q 26.265625 6.109375 33.40625 6.109375 
Q 40.53125 6.109375 44.609375 11.75 
Q 48.6875 17.390625 48.6875 27.296875 
z
" id="DejaVuSans-112"/>
      <path d="M 48.78125 52.59375 
L 48.78125 44.1875 
Q 44.96875 46.296875 41.140625 47.34375 
Q 37.3125 48.390625 33.40625 48.390625 
Q 24.65625 48.390625 19.8125 42.84375 
Q 14.984375 37.3125 14.984375 27.296875 
Q 14.984375 17.28125 19.8125 11.734375 
Q 24.65625 6.203125 33.40625 6.203125 
Q 37.3125 6.203125 41.140625 7.25 
Q 44.96875 8.296875 48.78125 10.40625 
L 48.78125 2.09375 
Q 45.015625 0.34375 40.984375 -0.53125 
Q 36.96875 -1.421875 32.421875 -1.421875 
Q 20.0625 -1.421875 12.78125 6.34375 
Q 5.515625 14.109375 5.515625 27.296875 
Q 5.515625 40.671875 12.859375 48.328125 
Q 20.21875 56 33.015625 56 
Q 37.15625 56 41.109375 55.140625 
Q 45.0625 54.296875 48.78125 52.59375 
z
" id="DejaVuSans-99"/>
      <path d="M 54.890625 33.015625 
L 54.890625 0 
L 45.90625 0 
L 45.90625 32.71875 
Q 45.90625 40.484375 42.875 44.328125 
Q 39.84375 48.1875 33.796875 48.1875 
Q 26.515625 48.1875 22.3125 43.546875 
Q 18.109375 38.921875 18.109375 30.90625 
L 18.109375 0 
L 9.078125 0 
L 9.078125 75.984375 
L 18.109375 75.984375 
L 18.109375 46.1875 
Q 21.34375 51.125 25.703125 53.5625 
Q 30.078125 56 35.796875 56 
Q 45.21875 56 50.046875 50.171875 
Q 54.890625 44.34375 54.890625 33.015625 
z
" id="DejaVuSans-104"/>
      <path d="M 44.28125 53.078125 
L 44.28125 44.578125 
Q 40.484375 46.53125 36.375 47.5 
Q 32.28125 48.484375 27.875 48.484375 
Q 21.1875 48.484375 17.84375 46.4375 
Q 14.5 44.390625 14.5 40.28125 
Q 14.5 37.15625 16.890625 35.375 
Q 19.28125 33.59375 26.515625 31.984375 
L 29.59375 31.296875 
Q 39.15625 29.25 43.1875 25.515625 
Q 47.21875 21.78125 47.21875 15.09375 
Q 47.21875 7.46875 41.1875 3.015625 
Q 35.15625 -1.421875 24.609375 -1.421875 
Q 20.21875 -1.421875 15.453125 -0.5625 
Q 10.6875 0.296875 5.421875 2 
L 5.421875 11.28125 
Q 10.40625 8.6875 15.234375 7.390625 
Q 20.0625 6.109375 24.8125 6.109375 
Q 31.15625 6.109375 34.5625 8.28125 
Q 37.984375 10.453125 37.984375 14.40625 
Q 37.984375 18.0625 35.515625 20.015625 
Q 33.0625 21.96875 24.703125 23.78125 
L 21.578125 24.515625 
Q 13.234375 26.265625 9.515625 29.90625 
Q 5.8125 33.546875 5.8125 39.890625 
Q 5.8125 47.609375 11.28125 51.796875 
Q 16.75 56 26.8125 56 
Q 31.78125 56 36.171875 55.265625 
Q 40.578125 54.546875 44.28125 53.078125 
z
" id="DejaVuSans-115"/>
      <path d="M 31 75.875 
Q 24.46875 64.65625 21.28125 53.65625 
Q 18.109375 42.671875 18.109375 31.390625 
Q 18.109375 20.125 21.3125 9.0625 
Q 24.515625 -2 31 -13.1875 
L 23.1875 -13.1875 
Q 15.875 -1.703125 12.234375 9.375 
Q 8.59375 20.453125 8.59375 31.390625 
Q 8.59375 42.28125 12.203125 53.3125 
Q 15.828125 64.359375 23.1875 75.875 
z
" id="DejaVuSans-40"/>
      <path d="M 8.5 21.578125 
L 8.5 54.6875 
L 17.484375 54.6875 
L 17.484375 21.921875 
Q 17.484375 14.15625 20.5 10.265625 
Q 23.53125 6.390625 29.59375 6.390625 
Q 36.859375 6.390625 41.078125 11.03125 
Q 45.3125 15.671875 45.3125 23.6875 
L 45.3125 54.6875 
L 54.296875 54.6875 
L 54.296875 0 
L 45.3125 0 
L 45.3125 8.40625 
Q 42.046875 3.421875 37.71875 1 
Q 33.40625 -1.421875 27.6875 -1.421875 
Q 18.265625 -1.421875 13.375 4.4375 
Q 8.5 10.296875 8.5 21.578125 
z
M 31.109375 56 
z
" id="DejaVuSans-117"/>
      <path d="M 8.015625 75.875 
L 15.828125 75.875 
Q 23.140625 64.359375 26.78125 53.3125 
Q 30.421875 42.28125 30.421875 31.390625 
Q 30.421875 20.453125 26.78125 9.375 
Q 23.140625 -1.703125 15.828125 -13.1875 
L 8.015625 -13.1875 
Q 14.5 -2 17.703125 9.0625 
Q 20.90625 20.125 20.90625 31.390625 
Q 20.90625 42.671875 17.703125 53.65625 
Q 14.5 64.65625 8.015625 75.875 
z
" id="DejaVuSans-41"/>
     </defs>
     <g transform="translate(41.60625 297.553125)scale(0.2 -0.2)">
      <use xlink:href="#DejaVuSans-84"/>
      <use x="60.865234" xlink:href="#DejaVuSans-114"/>
      <use x="101.978516" xlink:href="#DejaVuSans-97"/>
      <use x="163.257812" xlink:href="#DejaVuSans-105"/>
      <use x="191.041016" xlink:href="#DejaVuSans-110"/>
      <use x="254.419922" xlink:href="#DejaVuSans-105"/>
      <use x="282.203125" xlink:href="#DejaVuSans-110"/>
      <use x="345.582031" xlink:href="#DejaVuSans-103"/>
      <use x="409.058594" xlink:href="#DejaVuSans-32"/>
      <use x="440.845703" xlink:href="#DejaVuSans-84"/>
      <use x="501.882812" xlink:href="#DejaVuSans-105"/>
      <use x="529.666016" xlink:href="#DejaVuSans-109"/>
      <use x="627.078125" xlink:href="#DejaVuSans-101"/>
      <use x="688.601562" xlink:href="#DejaVuSans-32"/>
      <use x="720.388672" xlink:href="#DejaVuSans-102"/>
      <use x="755.59375" xlink:href="#DejaVuSans-111"/>
      <use x="816.775391" xlink:href="#DejaVuSans-114"/>
      <use x="857.888672" xlink:href="#DejaVuSans-32"/>
      <use x="889.675781" xlink:href="#DejaVuSans-57"/>
      <use x="953.298828" xlink:href="#DejaVuSans-48"/>
      <use x="1016.921875" xlink:href="#DejaVuSans-32"/>
      <use x="1048.708984" xlink:href="#DejaVuSans-69"/>
      <use x="1111.892578" xlink:href="#DejaVuSans-112"/>
      <use x="1175.369141" xlink:href="#DejaVuSans-111"/>
      <use x="1236.550781" xlink:href="#DejaVuSans-99"/>
      <use x="1291.53125" xlink:href="#DejaVuSans-104"/>
      <use x="1354.910156" xlink:href="#DejaVuSans-115"/>
      <use x="1407.009766" xlink:href="#DejaVuSans-32"/>
      <use x="1438.796875" xlink:href="#DejaVuSans-40"/>
      <use x="1477.810547" xlink:href="#DejaVuSans-104"/>
      <use x="1541.189453" xlink:href="#DejaVuSans-111"/>
      <use x="1602.371094" xlink:href="#DejaVuSans-117"/>
      <use x="1665.75" xlink:href="#DejaVuSans-114"/>
      <use x="1706.863281" xlink:href="#DejaVuSans-115"/>
      <use x="1758.962891" xlink:href="#DejaVuSans-41"/>
     </g>
    </g>
   </g>
   <g id="matplotlib.axis_2">
    <g id="ytick_1">
     <g id="line2d_9">
      <path clip-path="url(#p578d4dad70)" d="M 54 220.307555 
L 388.8 220.307555 
" style="fill:none;stroke:#b0b0b0;stroke-linecap:square;stroke-width:0.8;"/>
     </g>
     <g id="line2d_10">
      <defs>
       <path d="M 0 0 
L -3.5 0 
" id="m48dd8d3946" style="stroke:#000000;stroke-width:0.8;"/>
      </defs>
      <g>
       <use style="stroke:#000000;stroke-width:0.8;" x="54" xlink:href="#m48dd8d3946" y="220.307555"/>
      </g>
     </g>
     <g id="text_6">
      <!-- 0.4 -->
      <defs>
       <path d="M 10.6875 12.40625 
L 21 12.40625 
L 21 0 
L 10.6875 0 
z
" id="DejaVuSans-46"/>
       <path d="M 37.796875 64.3125 
L 12.890625 25.390625 
L 37.796875 25.390625 
z
M 35.203125 72.90625 
L 47.609375 72.90625 
L 47.609375 25.390625 
L 58.015625 25.390625 
L 58.015625 17.1875 
L 47.609375 17.1875 
L 47.609375 0 
L 37.796875 0 
L 37.796875 17.1875 
L 4.890625 17.1875 
L 4.890625 26.703125 
z
" id="DejaVuSans-52"/>
      </defs>
      <g transform="translate(15.19375 227.905993)scale(0.2 -0.2)">
       <use xlink:href="#DejaVuSans-48"/>
       <use x="63.623047" xlink:href="#DejaVuSans-46"/>
       <use x="95.410156" xlink:href="#DejaVuSans-52"/>
      </g>
     </g>
    </g>
    <g id="ytick_2">
     <g id="line2d_11">
      <path clip-path="url(#p578d4dad70)" d="M 54 154.815656 
L 388.8 154.815656 
" style="fill:none;stroke:#b0b0b0;stroke-linecap:square;stroke-width:0.8;"/>
     </g>
     <g id="line2d_12">
      <g>
       <use style="stroke:#000000;stroke-width:0.8;" x="54" xlink:href="#m48dd8d3946" y="154.815656"/>
      </g>
     </g>
     <g id="text_7">
      <!-- 0.6 -->
      <defs>
       <path d="M 33.015625 40.375 
Q 26.375 40.375 22.484375 35.828125 
Q 18.609375 31.296875 18.609375 23.390625 
Q 18.609375 15.53125 22.484375 10.953125 
Q 26.375 6.390625 33.015625 6.390625 
Q 39.65625 6.390625 43.53125 10.953125 
Q 47.40625 15.53125 47.40625 23.390625 
Q 47.40625 31.296875 43.53125 35.828125 
Q 39.65625 40.375 33.015625 40.375 
z
M 52.59375 71.296875 
L 52.59375 62.3125 
Q 48.875 64.0625 45.09375 64.984375 
Q 41.3125 65.921875 37.59375 65.921875 
Q 27.828125 65.921875 22.671875 59.328125 
Q 17.53125 52.734375 16.796875 39.40625 
Q 19.671875 43.65625 24.015625 45.921875 
Q 28.375 48.1875 33.59375 48.1875 
Q 44.578125 48.1875 50.953125 41.515625 
Q 57.328125 34.859375 57.328125 23.390625 
Q 57.328125 12.15625 50.6875 5.359375 
Q 44.046875 -1.421875 33.015625 -1.421875 
Q 20.359375 -1.421875 13.671875 8.265625 
Q 6.984375 17.96875 6.984375 36.375 
Q 6.984375 53.65625 15.1875 63.9375 
Q 23.390625 74.21875 37.203125 74.21875 
Q 40.921875 74.21875 44.703125 73.484375 
Q 48.484375 72.75 52.59375 71.296875 
z
" id="DejaVuSans-54"/>
      </defs>
      <g transform="translate(15.19375 162.414093)scale(0.2 -0.2)">
       <use xlink:href="#DejaVuSans-48"/>
       <use x="63.623047" xlink:href="#DejaVuSans-46"/>
       <use x="95.410156" xlink:href="#DejaVuSans-54"/>
      </g>
     </g>
    </g>
    <g id="ytick_3">
     <g id="line2d_13">
      <path clip-path="url(#p578d4dad70)" d="M 54 89.323757 
L 388.8 89.323757 
" style="fill:none;stroke:#b0b0b0;stroke-linecap:square;stroke-width:0.8;"/>
     </g>
     <g id="line2d_14">
      <g>
       <use style="stroke:#000000;stroke-width:0.8;" x="54" xlink:href="#m48dd8d3946" y="89.323757"/>
      </g>
     </g>
     <g id="text_8">
      <!-- 0.8 -->
      <defs>
       <path d="M 31.78125 34.625 
Q 24.75 34.625 20.71875 30.859375 
Q 16.703125 27.09375 16.703125 20.515625 
Q 16.703125 13.921875 20.71875 10.15625 
Q 24.75 6.390625 31.78125 6.390625 
Q 38.8125 6.390625 42.859375 10.171875 
Q 46.921875 13.96875 46.921875 20.515625 
Q 46.921875 27.09375 42.890625 30.859375 
Q 38.875 34.625 31.78125 34.625 
z
M 21.921875 38.8125 
Q 15.578125 40.375 12.03125 44.71875 
Q 8.5 49.078125 8.5 55.328125 
Q 8.5 64.0625 14.71875 69.140625 
Q 20.953125 74.21875 31.78125 74.21875 
Q 42.671875 74.21875 48.875 69.140625 
Q 55.078125 64.0625 55.078125 55.328125 
Q 55.078125 49.078125 51.53125 44.71875 
Q 48 40.375 41.703125 38.8125 
Q 48.828125 37.15625 52.796875 32.3125 
Q 56.78125 27.484375 56.78125 20.515625 
Q 56.78125 9.90625 50.3125 4.234375 
Q 43.84375 -1.421875 31.78125 -1.421875 
Q 19.734375 -1.421875 13.25 4.234375 
Q 6.78125 9.90625 6.78125 20.515625 
Q 6.78125 27.484375 10.78125 32.3125 
Q 14.796875 37.15625 21.921875 38.8125 
z
M 18.3125 54.390625 
Q 18.3125 48.734375 21.84375 45.5625 
Q 25.390625 42.390625 31.78125 42.390625 
Q 38.140625 42.390625 41.71875 45.5625 
Q 45.3125 48.734375 45.3125 54.390625 
Q 45.3125 60.0625 41.71875 63.234375 
Q 38.140625 66.40625 31.78125 66.40625 
Q 25.390625 66.40625 21.84375 63.234375 
Q 18.3125 60.0625 18.3125 54.390625 
z
" id="DejaVuSans-56"/>
      </defs>
      <g transform="translate(15.19375 96.922194)scale(0.2 -0.2)">
       <use xlink:href="#DejaVuSans-48"/>
       <use x="63.623047" xlink:href="#DejaVuSans-46"/>
       <use x="95.410156" xlink:href="#DejaVuSans-56"/>
      </g>
     </g>
    </g>
    <g id="text_9">
     <!-- Accuracy -->
     <defs>
      <path d="M 34.1875 63.1875 
L 20.796875 26.90625 
L 47.609375 26.90625 
z
M 28.609375 72.90625 
L 39.796875 72.90625 
L 67.578125 0 
L 57.328125 0 
L 50.6875 18.703125 
L 17.828125 18.703125 
L 11.1875 0 
L 0.78125 0 
z
" id="DejaVuSans-65"/>
      <path d="M 32.171875 -5.078125 
Q 28.375 -14.84375 24.75 -17.8125 
Q 21.140625 -20.796875 15.09375 -20.796875 
L 7.90625 -20.796875 
L 7.90625 -13.28125 
L 13.1875 -13.28125 
Q 16.890625 -13.28125 18.9375 -11.515625 
Q 21 -9.765625 23.484375 -3.21875 
L 25.09375 0.875 
L 2.984375 54.6875 
L 12.5 54.6875 
L 29.59375 11.921875 
L 46.6875 54.6875 
L 56.203125 54.6875 
z
" id="DejaVuSans-121"/>
     </defs>
     <g transform="translate(7.034375 189.109688)rotate(-90)scale(0.2 -0.2)">
      <use xlink:href="#DejaVuSans-65"/>
      <use x="68.392578" xlink:href="#DejaVuSans-99"/>
      <use x="123.373047" xlink:href="#DejaVuSans-99"/>
      <use x="178.353516" xlink:href="#DejaVuSans-117"/>
      <use x="241.732422" xlink:href="#DejaVuSans-114"/>
      <use x="282.845703" xlink:href="#DejaVuSans-97"/>
      <use x="344.125" xlink:href="#DejaVuSans-99"/>
      <use x="399.105469" xlink:href="#DejaVuSans-121"/>
     </g>
    </g>
   </g>
   <g id="line2d_15">
    <path clip-path="url(#p578d4dad70)" d="M 69.218545 156.354709 
L 70.307631 115.880714 
L 71.366227 95.512749 
L 72.431133 93.80995 
L 73.495871 85.688954 
L 74.559944 78.386606 
L 75.616528 73.834925 
L 76.674967 72.525084 
L 77.736523 71.739188 
L 78.793443 74.948276 
L 79.851288 65.779412 
L 80.908966 67.383976 
L 81.965197 63.81466 
L 83.022897 60.671055 
L 84.083478 68.530079 
L 85.140356 61.980895 
L 86.198992 60.933026 
L 87.248517 59.950641 
L 88.304491 59.230228 
L 89.362157 59.623186 
L 90.418344 56.053871 
L 91.467099 55.759167 
L 92.520396 58.739035 
L 93.571413 58.870021 
L 94.615762 59.72142 
L 95.659585 52.81203 
L 96.687967 57.429194 
L 97.707236 57.003505 
L 98.725544 57.592932 
L 99.740557 56.25034 
L 100.754505 57.625683 
L 101.769997 48.391316 
L 102.787642 48.587804 
L 103.79446 48.031109 
L 104.801106 47.83464 
L 105.810386 48.031109 
L 106.826154 47.83464 
L 107.856286 47.670902 
L 108.896539 47.081475 
L 109.943853 48.194846 
L 110.998876 47.179729 
L 112.049054 47.343447 
L 113.098675 47.769137 
L 114.155969 47.605419 
L 115.201198 47.670902 
L 116.253319 48.162095 
L 117.299918 47.572668 
L 118.349613 47.83464 
L 119.397817 47.376198 
L 120.444029 46.590302 
L 121.501672 46.75402 
L 122.550178 47.179729 
L 123.596565 47.212461 
L 124.65298 47.310696 
L 125.698335 47.441682 
L 126.748095 47.572668 
L 127.796486 47.605419 
L 128.844693 46.98324 
L 129.893158 47.179729 
L 130.937177 48.162095 
L 131.981893 47.048743 
L 133.029434 47.40895 
L 134.078254 47.769137 
L 135.134811 46.721268 
L 136.189271 46.819522 
L 137.23496 47.539916 
L 138.288317 47.867391 
L 139.333152 47.081475 
L 140.376887 47.801888 
L 141.425139 47.015992 
L 142.470579 46.688536 
L 143.514979 47.146978 
L 144.56527 47.212461 
L 145.619571 47.081475 
L 146.661864 46.852254 
L 147.708503 47.048743 
L 148.753464 47.015992 
L 149.794924 47.376198 
L 150.840853 47.670902 
L 151.884987 47.638171 
L 152.932136 47.638171 
L 153.980343 47.114227 
L 155.021407 46.917757 
L 156.072206 47.146978 
L 157.118104 47.441682 
L 158.168739 48.129343 
L 159.214683 47.900123 
" style="fill:none;stroke:#1f77b4;stroke-linecap:square;stroke-width:1.5;"/>
   </g>
   <g id="line2d_16">
    <path clip-path="url(#p578d4dad70)" d="M 69.218182 206.161307 
L 69.218256 169.191124 
L 71.310484 149.838277 
L 73.29451 136.576153 
L 75.249457 119.941221 
L 77.200207 115.38954 
L 79.151061 104.550628 
L 81.08795 103.339022 
L 83.032882 107.988957 
L 84.961682 89.192767 
L 86.877199 93.58073 
L 88.684775 87.195264 
L 90.444766 86.409367 
L 92.184377 82.5781 
L 93.910538 83.822438 
L 95.621176 82.348859 
L 97.341707 76.225385 
L 99.057803 92.893068 
L 100.777484 79.205254 
L 102.493564 80.318625 
L 104.214626 72.787056 
L 105.933117 76.618324 
L 107.650181 78.190137 
L 109.372831 73.73669 
L 111.093442 68.071638 
L 112.827223 69.545196 
L 114.562416 70.855037 
L 116.30579 67.842417 
L 118.062648 68.98852 
L 119.820998 68.038886 
L 121.578741 70.756802 
L 123.361732 60.638303 
L 125.119949 59.361214 
L 126.888302 59.852406 
L 128.659526 59.885138 
L 130.435487 59.328462 
L 132.208893 59.590435 
L 133.98445 58.771787 
L 135.777618 58.542566 
L 137.566625 59.426697 
L 139.358439 59.91789 
L 141.15906 58.41158 
L 142.971646 58.051373 
L 144.787707 58.247843 
L 146.613655 58.968256 
L 148.429909 58.051373 
L 150.255986 57.98589 
L 152.085833 58.477063 
L 153.922655 58.247843 
L 155.766794 58.378829 
L 157.629994 58.313345 
L 159.51474 58.084125 
L 161.397475 58.509815 
L 163.300642 57.854904 
L 165.196049 59.099242 
L 167.102866 57.494697 
L 169.000502 58.247843 
L 170.903528 58.870021 
L 172.829948 58.935524 
L 174.741742 57.363711 
L 176.662911 57.625683 
L 178.591541 58.509815 
L 180.515102 59.262979 
L 182.446401 57.134491 
L 184.394571 59.72142 
L 186.352654 59.099242 
L 188.298848 59.001007 
L 190.240737 57.625683 
L 192.188324 57.134491 
L 194.143196 58.247843 
L 196.095963 58.739035 
L 198.048833 56.970753 
L 199.995364 56.446829 
L 201.924124 57.036256 
L 203.847375 57.036256 
L 205.773469 56.741533 
L 207.699425 56.741533 
L 209.61556 57.036256 
L 211.566832 56.741533 
L 213.528114 57.068988 
L 215.482267 57.199974 
L 217.446488 56.872519 
L 219.404318 57.003505 
L 221.353957 56.741533 
L 223.316289 57.232725 
L 225.277812 57.363711 
L 227.23356 57.003505 
" style="fill:none;stroke:#ff7f0e;stroke-dasharray:5.55,2.4;stroke-dashoffset:0;stroke-width:1.5;"/>
   </g>
   <g id="line2d_17">
    <path clip-path="url(#p578d4dad70)" d="M 69.218182 219.980098 
L 73.600547 179.047651 
L 77.46214 157.337095 
L 81.154146 136.08498 
L 84.739707 117.681747 
L 88.287411 111.558253 
L 91.850025 103.142553 
L 95.400663 97.019059 
L 98.949779 89.847697 
L 102.41709 88.898063 
L 105.923002 89.520241 
L 109.330095 82.971038 
L 112.749216 86.802326 
L 116.135976 85.623471 
L 119.546651 79.827432 
L 122.961988 77.240503 
L 126.366655 77.044033 
L 129.77715 78.845047 
L 133.187018 80.908052 
L 136.604272 74.620821 
L 140.014086 73.769422 
L 143.431251 73.376483 
L 146.831214 71.542699 
L 150.247966 72.00114 
L 153.774278 68.300858 
L 157.575723 71.477215 
L 161.60516 71.084257 
L 165.803124 68.530079 
L 169.755318 68.955769 
L 173.454111 66.794548 
L 177.145989 67.67868 
L 180.901252 59.688669 
L 184.790453 59.230228 
L 188.665214 58.673552 
L 192.651457 58.247843 
L 196.581669 57.658415 
L 200.653438 57.723918 
L 204.47286 57.953139 
L 207.898672 56.90527 
L 211.269503 57.822153 
L 214.855862 57.920387 
L 218.255325 56.90527 
L 221.673413 56.741533 
L 225.075666 56.348594 
L 228.472533 57.298209 
L 231.874774 58.182359 
L 235.269566 56.774284 
L 238.657974 56.839767 
L 242.0584 57.134491 
L 245.485548 56.774284 
L 248.903692 56.577815 
L 252.339364 57.265477 
L 255.767593 57.134491 
L 259.219826 56.839767 
L 262.638533 56.25034 
L 266.010188 56.839767 
L 269.397173 56.414077 
L 272.7514 57.134491 
L 276.115836 56.741533 
L 279.504976 56.381326 
L 282.886702 56.610547 
L 286.283845 56.839767 
L 289.683531 57.265477 
L 293.055776 56.938021 
L 296.44214 56.512312 
L 299.819498 56.643298 
L 303.217523 57.723918 
L 306.664121 56.381326 
L 310.098138 57.232725 
L 313.520894 57.199974 
L 316.941991 57.134491 
L 320.419706 56.414077 
L 323.924469 56.348594 
L 327.452182 56.053871 
L 330.979579 56.217608 
L 334.520418 56.610547 
L 338.052035 55.922885 
L 341.60322 56.283091 
L 345.135064 56.283091 
L 348.679249 56.315843 
L 352.22684 56.152105 
L 355.786645 56.25034 
L 359.34601 56.021119 
L 362.907519 55.759167 
L 366.46689 55.529946 
L 370.030929 55.890133 
L 373.581818 56.119354 
" style="fill:none;stroke:#2ca02c;stroke-dasharray:9.6,2.4,1.5,2.4;stroke-dashoffset:0;stroke-width:1.5;"/>
   </g>
   <g id="patch_3">
    <path d="M 54 252 
L 54 34.56 
" style="fill:none;stroke:#000000;stroke-linecap:square;stroke-linejoin:miter;stroke-width:0.8;"/>
   </g>
   <g id="patch_4">
    <path d="M 388.8 252 
L 388.8 34.56 
" style="fill:none;stroke:#000000;stroke-linecap:square;stroke-linejoin:miter;stroke-width:0.8;"/>
   </g>
   <g id="patch_5">
    <path d="M 54 252 
L 388.8 252 
" style="fill:none;stroke:#000000;stroke-linecap:square;stroke-linejoin:miter;stroke-width:0.8;"/>
   </g>
   <g id="patch_6">
    <path d="M 54 34.56 
L 388.8 34.56 
" style="fill:none;stroke:#000000;stroke-linecap:square;stroke-linejoin:miter;stroke-width:0.8;"/>
   </g>
   <g id="text_10">
    <!-- Test ACC ~ Time (90 Epochs) -->
    <defs>
     <path d="M 18.3125 70.21875 
L 18.3125 54.6875 
L 36.8125 54.6875 
L 36.8125 47.703125 
L 18.3125 47.703125 
L 18.3125 18.015625 
Q 18.3125 11.328125 20.140625 9.421875 
Q 21.96875 7.515625 27.59375 7.515625 
L 36.8125 7.515625 
L 36.8125 0 
L 27.59375 0 
Q 17.1875 0 13.234375 3.875 
Q 9.28125 7.765625 9.28125 18.015625 
L 9.28125 47.703125 
L 2.6875 47.703125 
L 2.6875 54.6875 
L 9.28125 54.6875 
L 9.28125 70.21875 
z
" id="DejaVuSans-116"/>
     <path d="M 64.40625 67.28125 
L 64.40625 56.890625 
Q 59.421875 61.53125 53.78125 63.8125 
Q 48.140625 66.109375 41.796875 66.109375 
Q 29.296875 66.109375 22.65625 58.46875 
Q 16.015625 50.828125 16.015625 36.375 
Q 16.015625 21.96875 22.65625 14.328125 
Q 29.296875 6.6875 41.796875 6.6875 
Q 48.140625 6.6875 53.78125 8.984375 
Q 59.421875 11.28125 64.40625 15.921875 
L 64.40625 5.609375 
Q 59.234375 2.09375 53.4375 0.328125 
Q 47.65625 -1.421875 41.21875 -1.421875 
Q 24.65625 -1.421875 15.125 8.703125 
Q 5.609375 18.84375 5.609375 36.375 
Q 5.609375 53.953125 15.125 64.078125 
Q 24.65625 74.21875 41.21875 74.21875 
Q 47.75 74.21875 53.53125 72.484375 
Q 59.328125 70.75 64.40625 67.28125 
z
" id="DejaVuSans-67"/>
     <path d="M 73.1875 39.890625 
L 73.1875 31.203125 
Q 68.0625 27.34375 63.6875 25.6875 
Q 59.328125 24.03125 54.59375 24.03125 
Q 49.21875 24.03125 42.09375 26.90625 
Q 41.546875 27.09375 41.3125 27.203125 
Q 40.96875 27.34375 40.234375 27.59375 
Q 32.671875 30.609375 28.078125 30.609375 
Q 23.78125 30.609375 19.578125 28.734375 
Q 15.375 26.859375 10.59375 22.796875 
L 10.59375 31.5 
Q 15.71875 35.359375 20.09375 37.03125 
Q 24.46875 38.71875 29.203125 38.71875 
Q 34.578125 38.71875 41.75 35.796875 
Q 42.234375 35.59375 42.484375 35.5 
Q 42.875 35.359375 43.5625 35.109375 
Q 51.125 32.078125 55.71875 32.078125 
Q 59.90625 32.078125 64.03125 33.9375 
Q 68.171875 35.796875 73.1875 39.890625 
z
" id="DejaVuSans-126"/>
    </defs>
    <g transform="translate(44.311875 28.56)scale(0.24 -0.24)">
     <use xlink:href="#DejaVuSans-84"/>
     <use x="60.818359" xlink:href="#DejaVuSans-101"/>
     <use x="122.341797" xlink:href="#DejaVuSans-115"/>
     <use x="174.441406" xlink:href="#DejaVuSans-116"/>
     <use x="213.650391" xlink:href="#DejaVuSans-32"/>
     <use x="245.4375" xlink:href="#DejaVuSans-65"/>
     <use x="313.830078" xlink:href="#DejaVuSans-67"/>
     <use x="383.654297" xlink:href="#DejaVuSans-67"/>
     <use x="453.478516" xlink:href="#DejaVuSans-32"/>
     <use x="485.265625" xlink:href="#DejaVuSans-126"/>
     <use x="569.054688" xlink:href="#DejaVuSans-32"/>
     <use x="600.841797" xlink:href="#DejaVuSans-84"/>
     <use x="661.878906" xlink:href="#DejaVuSans-105"/>
     <use x="689.662109" xlink:href="#DejaVuSans-109"/>
     <use x="787.074219" xlink:href="#DejaVuSans-101"/>
     <use x="848.597656" xlink:href="#DejaVuSans-32"/>
     <use x="880.384766" xlink:href="#DejaVuSans-40"/>
     <use x="919.398438" xlink:href="#DejaVuSans-57"/>
     <use x="983.021484" xlink:href="#DejaVuSans-48"/>
     <use x="1046.644531" xlink:href="#DejaVuSans-32"/>
     <use x="1078.431641" xlink:href="#DejaVuSans-69"/>
     <use x="1141.615234" xlink:href="#DejaVuSans-112"/>
     <use x="1205.091797" xlink:href="#DejaVuSans-111"/>
     <use x="1266.273438" xlink:href="#DejaVuSans-99"/>
     <use x="1321.253906" xlink:href="#DejaVuSans-104"/>
     <use x="1384.632812" xlink:href="#DejaVuSans-115"/>
     <use x="1436.732422" xlink:href="#DejaVuSans-41"/>
    </g>
   </g>
   <g id="legend_1">
    <g id="patch_7">
     <path d="M 240.559375 242 
L 374.8 242 
Q 378.8 242 378.8 238 
L 378.8 151.93125 
Q 378.8 147.93125 374.8 147.93125 
L 240.559375 147.93125 
Q 236.559375 147.93125 236.559375 151.93125 
L 236.559375 238 
Q 236.559375 242 240.559375 242 
z
" style="fill:#ffffff;opacity:0.8;stroke:#cccccc;stroke-linejoin:miter;"/>
    </g>
    <g id="line2d_18">
     <path d="M 244.559375 164.128125 
L 284.559375 164.128125 
" style="fill:none;stroke:#1f77b4;stroke-linecap:square;stroke-width:1.5;"/>
    </g>
    <g id="line2d_19"/>
    <g id="text_11">
     <!-- ACA -->
     <g transform="translate(300.559375 171.128125)scale(0.2 -0.2)">
      <use xlink:href="#DejaVuSans-65"/>
      <use x="68.392578" xlink:href="#DejaVuSans-67"/>
      <use x="138.216797" xlink:href="#DejaVuSans-65"/>
     </g>
    </g>
    <g id="line2d_20">
     <path d="M 244.559375 193.484375 
L 284.559375 193.484375 
" style="fill:none;stroke:#ff7f0e;stroke-dasharray:5.55,2.4;stroke-dashoffset:0;stroke-width:1.5;"/>
    </g>
    <g id="line2d_21"/>
    <g id="text_12">
     <!-- Adjoint -->
     <defs>
      <path d="M 45.40625 46.390625 
L 45.40625 75.984375 
L 54.390625 75.984375 
L 54.390625 0 
L 45.40625 0 
L 45.40625 8.203125 
Q 42.578125 3.328125 38.25 0.953125 
Q 33.9375 -1.421875 27.875 -1.421875 
Q 17.96875 -1.421875 11.734375 6.484375 
Q 5.515625 14.40625 5.515625 27.296875 
Q 5.515625 40.1875 11.734375 48.09375 
Q 17.96875 56 27.875 56 
Q 33.9375 56 38.25 53.625 
Q 42.578125 51.265625 45.40625 46.390625 
z
M 14.796875 27.296875 
Q 14.796875 17.390625 18.875 11.75 
Q 22.953125 6.109375 30.078125 6.109375 
Q 37.203125 6.109375 41.296875 11.75 
Q 45.40625 17.390625 45.40625 27.296875 
Q 45.40625 37.203125 41.296875 42.84375 
Q 37.203125 48.484375 30.078125 48.484375 
Q 22.953125 48.484375 18.875 42.84375 
Q 14.796875 37.203125 14.796875 27.296875 
z
" id="DejaVuSans-100"/>
      <path d="M 9.421875 54.6875 
L 18.40625 54.6875 
L 18.40625 -0.984375 
Q 18.40625 -11.421875 14.421875 -16.109375 
Q 10.453125 -20.796875 1.609375 -20.796875 
L -1.8125 -20.796875 
L -1.8125 -13.1875 
L 0.59375 -13.1875 
Q 5.71875 -13.1875 7.5625 -10.8125 
Q 9.421875 -8.453125 9.421875 -0.984375 
z
M 9.421875 75.984375 
L 18.40625 75.984375 
L 18.40625 64.59375 
L 9.421875 64.59375 
z
" id="DejaVuSans-106"/>
     </defs>
     <g transform="translate(300.559375 200.484375)scale(0.2 -0.2)">
      <use xlink:href="#DejaVuSans-65"/>
      <use x="68.392578" xlink:href="#DejaVuSans-100"/>
      <use x="131.869141" xlink:href="#DejaVuSans-106"/>
      <use x="159.652344" xlink:href="#DejaVuSans-111"/>
      <use x="220.833984" xlink:href="#DejaVuSans-105"/>
      <use x="248.617188" xlink:href="#DejaVuSans-110"/>
      <use x="311.996094" xlink:href="#DejaVuSans-116"/>
     </g>
    </g>
    <g id="line2d_22">
     <path d="M 244.559375 222.840625 
L 284.559375 222.840625 
" style="fill:none;stroke:#2ca02c;stroke-dasharray:9.6,2.4,1.5,2.4;stroke-dashoffset:0;stroke-width:1.5;"/>
    </g>
    <g id="line2d_23"/>
    <g id="text_13">
     <!-- Naive -->
     <defs>
      <path d="M 9.8125 72.90625 
L 23.09375 72.90625 
L 55.421875 11.921875 
L 55.421875 72.90625 
L 64.984375 72.90625 
L 64.984375 0 
L 51.703125 0 
L 19.390625 60.984375 
L 19.390625 0 
L 9.8125 0 
z
" id="DejaVuSans-78"/>
      <path d="M 2.984375 54.6875 
L 12.5 54.6875 
L 29.59375 8.796875 
L 46.6875 54.6875 
L 56.203125 54.6875 
L 35.6875 0 
L 23.484375 0 
z
" id="DejaVuSans-118"/>
     </defs>
     <g transform="translate(300.559375 229.840625)scale(0.2 -0.2)">
      <use xlink:href="#DejaVuSans-78"/>
      <use x="74.804688" xlink:href="#DejaVuSans-97"/>
      <use x="136.083984" xlink:href="#DejaVuSans-105"/>
      <use x="163.867188" xlink:href="#DejaVuSans-118"/>
      <use x="223.046875" xlink:href="#DejaVuSans-101"/>
     </g>
    </g>
   </g>
  </g>
 </g>
 <defs>
  <clipPath id="p578d4dad70">
   <rect height="217.44" width="334.8" x="54" y="34.56"/>
  </clipPath>
 </defs>
</svg>
