<?xml version="1.0" encoding="UTF-8" standalone="no"?>
<svg
   xmlns:dc="http://purl.org/dc/elements/1.1/"
   xmlns:cc="http://creativecommons.org/ns#"
   xmlns:rdf="http://www.w3.org/1999/02/22-rdf-syntax-ns#"
   xmlns:svg="http://www.w3.org/2000/svg"
   xmlns="http://www.w3.org/2000/svg"
   xmlns:xlink="http://www.w3.org/1999/xlink"
   xmlns:sodipodi="http://sodipodi.sourceforge.net/DTD/sodipodi-0.dtd"
   xmlns:inkscape="http://www.inkscape.org/namespaces/inkscape"
   inkscape:version="1.0rc1 (09960d6, 2020-04-09)"
   sodipodi:docname="ACC_time_confidence.svg"
   id="svg446"
   width="297mm"
   viewBox="0 0 841.88978 595.27559"
   version="1.1"
   height="210mm">
  <metadata
     id="metadata450">
    <rdf:RDF>
      <cc:Work
         rdf:about="">
        <dc:format>image/svg+xml</dc:format>
        <dc:type
           rdf:resource="http://purl.org/dc/dcmitype/StillImage" />
        <dc:title />
      </cc:Work>
    </rdf:RDF>
  </metadata>
  <sodipodi:namedview
     inkscape:current-layer="svg446"
     inkscape:window-maximized="1"
     inkscape:window-y="23"
     inkscape:window-x="56"
     inkscape:cy="184.97989"
     inkscape:cx="241.66728"
     inkscape:zoom="1.4244792"
     units="mm"
     showgrid="false"
     id="namedview448"
     inkscape:window-height="755"
     inkscape:window-width="1224"
     inkscape:pageshadow="2"
     inkscape:pageopacity="0"
     guidetolerance="10"
     gridtolerance="10"
     objecttolerance="10"
     borderopacity="1"
     bordercolor="#666666"
     pagecolor="#ffffff"
     inkscape:document-rotation="0" />
  <defs
     id="defs12">
    <style
       id="style10"
       type="text/css">
*{stroke-linecap:butt;stroke-linejoin:round;white-space:pre;}
  </style>
  </defs>
  <g
     style="stroke-width:0.970746"
     transform="matrix(1,0,0,1.0611789,42,7.5)"
     id="figure_1">
    <g
       style="stroke-width:0.970746"
       id="patch_1">
      <path
         inkscape:connector-curvature="0"
         id="path14"
         style="fill:#ffffff;stroke-width:0.970746"
         d="M 0,288 H 432 V 0 H 0 Z" />
    </g>
    <g
       style="stroke-width:0.970746"
       id="axes_1">
      <g
         style="stroke-width:0.970746"
         id="patch_2">
        <path
           inkscape:connector-curvature="0"
           id="path17"
           style="fill:#ffffff;stroke-width:0.970746"
           d="M 54,252 H 388.8 V 34.56 H 54 Z" />
      </g>
      <g
         style="stroke-width:0.970746"
         id="PolyCollection_1">
        <path
           inkscape:connector-curvature="0"
           id="path20"
           style="fill:#1f77b4;fill-opacity:0.5;stroke-width:0.970746"
           d="m 69.218545,146.25944 v 20.19054 l 1.089086,-38.71963 1.058596,-16.59769 1.064906,3.817 1.064738,-10.21502 1.064073,-12.140544 1.056584,-8.519128 1.058439,2.493865 1.061556,-7.694983 1.05692,2.900449 1.057845,-10.541965 1.057678,2.034662 1.056231,-2.524167 1.0577,-3.748728 1.060581,8.691092 1.056878,-9.87606 1.058636,3.549807 1.049525,-5.052097 1.055974,3.081091 1.057666,-2.182429 1.056187,-3.936148 1.048755,0.954772 1.053297,0.865202 1.051017,1.591399 1.044349,-0.725263 1.043823,-8.831182 1.028382,7.401129 1.019269,0.247813 1.018308,-0.03893 1.015013,-1.002804 1.013943,0.25621 1.0155,-12.529848 1.01764,0.13819 1.00682,-0.503195 1.00665,-0.39483 1.00928,0.365294 1.01576,-0.600623 1.03014,-0.258562 1.04025,-0.399356 1.04731,1.089957 1.05503,-0.858425 1.05017,0.650459 1.04963,-0.03972 1.05729,-0.126237 1.04523,0.09688 1.05212,0.901389 1.0466,-0.835087 1.04969,0.321939 1.04821,-0.630867 1.04621,-0.906819 1.05764,1.015439 1.04851,0.12212 1.04638,-0.27935 1.05642,0.415225 1.04536,0.332878 1.04976,-0.358544 1.04839,-0.0059 1.0482,-0.391042 1.04847,0.166002 1.04402,0.675161 1.04471,-1.283927 1.04754,0.584778 1.04882,0.371197 1.05656,0.16665 1.05446,-0.391529 1.04569,0.663347 1.05336,0.09048 1.04483,-0.568966 1.04374,0.565727 1.04825,-1.076411 1.04544,-0.279408 1.0444,-0.006 1.05029,0.0514 1.0543,-0.05323 1.04229,-0.235491 1.04664,0.229826 1.04496,-0.0645 1.04146,0.333112 1.04593,0.483095 1.04414,-0.07495 1.04715,-0.118063 1.0482,-0.103563 1.04107,-0.572056 1.0508,0.523144 1.04589,0.261631 1.05064,0.393356 1.04594,-0.318726 v -1.661948 0 l -1.04594,0.139714 -1.05064,-0.981966 -1.04589,-0.327778 -1.0508,0.0647 -1.04107,-0.179117 -1.0482,0.944325 -1.04715,-0.118063 -1.04414,-0.0095 -1.04593,-0.106313 -1.04146,-0.387302 -1.04496,10e-4 -1.04664,-0.163151 -1.04229,0.22295 -1.0543,0.208746 -1.05029,-0.07956 -1.0444,-0.922917 -1.04544,0.375502 -1.04825,0.495382 -1.04374,-0.875099 -1.04483,1.002867 -1.05336,-0.564473 -1.04569,-0.777441 -1.05446,-0.588038 -1.05656,2.262388 -1.04882,-0.349177 -1.04754,-0.135636 -1.04471,0.942777 -1.04402,-1.289571 -1.04847,-0.226975 -1.0482,0.853315 -1.04839,-0.07143 -1.04976,-0.620516 -1.04536,0.07091 -1.05642,0.218757 -1.04638,-0.344815 -1.04851,-0.729299 -1.05764,0.688004 -1.04621,0.664974 -1.04821,0.286015 -1.04969,-0.202005 -1.0466,0.343768 -1.05212,-0.081 -1.04523,-0.03409 -1.05729,0.201199 -1.04963,-0.891099 -1.05017,0.323025 -1.05503,1.171809 -1.04731,-1.136786 -1.04025,0.779499 -1.03014,0.06891 -1.01576,-0.207685 -1.00928,-0.02764 -1.00665,-0.0019 -1.00682,0.610195 -1.01764,-0.254787 -1.0155,5.938887 -1.013943,-2.494476 -1.015013,1.68238 -1.018308,-1.217786 -1.019269,1.099193 -1.028382,-1.8332 -1.043823,4.987599 -1.044349,-2.428062 -1.051017,1.329428 -1.053297,-5.094536 -1.048755,1.54418 -1.056187,3.202482 -1.057666,-2.968344 -1.055974,4.521917 -1.049525,-3.087326 -1.058636,5.645544 -1.056878,3.222308 -1.060581,-7.026957 -1.0577,2.538484 -1.056231,4.614463 -1.057678,-1.174466 -1.057845,7.795765 -1.05692,-3.517729 -1.061556,-6.12319 -1.058439,5.113547 -1.056584,0.584233 -1.064073,2.464151 -1.064738,6.026974 -1.064906,7.222597 -1.058596,24.138242 z"
           clip-path="url(#p578d4dad70)" />
      </g>
      <g
         style="stroke-width:0.970746"
         id="PolyCollection_2">
        <path
           inkscape:connector-curvature="0"
           id="path23"
           style="fill:#ff7f0e;fill-opacity:0.5;stroke-width:0.970746"
           d="m 69.218182,190.88775 v 30.54711 l 7.4e-5,-39.27475 2.092228,-21.89145 1.984026,-16.17849 1.954947,-12.17977 1.95075,-1.91365 1.950854,-18.97691 1.936889,-1.23799 1.944932,-0.27203 1.9288,-14.385487 1.915517,6.888807 1.807576,-0.38457 1.759991,-10.903063 1.739611,-4.546898 1.726161,2.04739 1.710638,-1.585281 1.720531,-2.267913 1.716096,11.462716 1.719677,-11.604929 1.71608,1.115617 1.72107,-7.604049 1.71849,3.312303 1.71706,3.895032 1.72265,-5.946318 1.72061,-5.764983 1.73378,0.04298 1.7352,0.189083 1.74337,-1.777742 1.75686,0.53833 1.75835,0.710847 1.75774,3.093571 1.78299,-14.602206 1.75822,-1.216919 1.76835,0.544038 1.77123,0.259695 1.77596,-0.218032 1.7734,-0.166544 1.77556,-0.823445 1.79317,0.357088 1.789,0.173112 1.79182,1.198602 1.80062,-1.909997 1.81259,0.618598 1.81606,-0.165829 1.82594,0.167583 1.81626,-0.211011 1.82608,-1.394655 1.82984,1.749265 1.83682,-0.211275 1.84414,-0.153441 1.8632,0.04073 1.88475,-0.06307 1.88273,0.213973 1.90317,-0.901578 1.89541,1.051031 1.90682,-1.767127 1.89763,1.483584 1.90303,0.287666 1.92642,-0.121147 1.91179,-0.953304 1.92117,0.775231 1.92863,0.812459 1.92356,-0.260088 1.9313,-1.367295 1.94817,1.559552 1.95808,-0.648626 1.9462,0.387403 1.94189,-1.573981 1.94758,-0.313915 1.95488,0.246835 1.95276,0.932488 1.95287,-2.164486 1.94653,-0.01931 1.92876,0.580001 1.92325,-0.01851 1.9261,-0.414883 1.92595,0.136353 1.91614,-0.08912 1.95127,-0.167095 1.96128,0.510622 1.95416,-0.105054 1.96422,-0.0497 1.95783,0.07468 1.94964,-0.264709 1.96233,0.570369 1.96152,0.06218 1.95575,-0.360212 v -2.256633 0 l -1.95575,0.360202 -1.96152,-0.199796 -1.96233,-0.412016 -1.94964,0.259234 -1.95783,-0.18729 -1.96422,0.605208 -1.95416,-0.367026 -1.96128,-0.144289 -1.95127,0.422353 -1.91614,-0.678573 -1.92595,0.136354 -1.9261,0.174564 -1.92325,-0.01851 -1.92876,-0.598855 -1.94653,1.028541 -1.95287,1.372078 -1.95276,-0.0499 -1.95488,-1.979868 -1.94758,0.66847 -1.94189,1.176667 -1.9462,0.583871 -1.95808,0.595732 -1.94817,-3.614308 -1.9313,2.889683 -1.92356,-1.766418 -1.92863,-0.955804 -1.92117,0.251288 -1.91179,2.190321 -1.92642,-0.252153 -1.90303,-0.956691 -1.89763,-0.02271 -1.90682,1.441961 -1.89541,-1.437644 -1.90317,0.408243 -1.88273,-0.637407 -1.88475,0.395366 -1.8632,0.171696 -1.84414,-0.415414 -1.83682,0.247167 -1.82984,0.766918 -1.82608,-1.263688 -1.81626,1.622753 -1.82594,-1.273243 -1.81606,-0.558767 -1.81259,1.339011 -1.80062,1.102623 -1.79182,0.216216 -1.789,-1.595151 -1.79317,0.81553 -1.77556,0.813851 -1.7734,-0.690488 -1.77596,0.89532 -1.77123,0.194231 -1.76835,-0.438347 -1.75822,1.337259 -1.78299,5.634792 -1.75774,-2.342261 -1.75835,2.610115 -1.75686,-1.753876 -1.74337,4.247497 -1.7352,-2.430598 -1.73378,-2.904133 -1.72061,5.565122 -1.72265,2.960575 -1.71706,0.751407 -1.71849,-4.350233 -1.72107,7.459089 -1.71608,-1.111125 -1.719677,15.7707 -1.716096,-21.872651 -1.720531,9.979035 -1.710638,1.361876 -1.726161,-0.441285 -1.739611,3.115637 -1.759991,-9.331271 -1.807576,12.386368 -1.915517,-1.887125 -1.9288,23.206896 -1.944932,-9.571905 -1.936889,1.185226 -1.950854,2.700909 -1.95075,7.18971 -1.954947,21.09009 -1.984026,10.34577 -2.092228,16.81423 z"
           clip-path="url(#p578d4dad70)" />
      </g>
      <g
         style="stroke-width:0.970746"
         id="PolyCollection_3">
        <path
           inkscape:connector-curvature="0"
           id="path26"
           style="fill:#2ca02c;fill-opacity:0.5;stroke-width:0.970746"
           d="m 69.218182,197.84383 v 44.27253 l 4.382365,-61.23494 3.861593,-13.58954 3.692006,-26.36048 3.585561,-8.38298 3.547704,-15.48883 3.562614,-12.21428 3.550638,-7.105838 3.549116,5.665038 3.467311,-13.982503 3.50591,2.521407 3.4071,-1.899248 3.41912,-2.259455 3.38676,6.811156 3.41067,-8.284754 3.41534,-4.027756 3.40466,-2.161201 3.4105,4.355192 3.40987,8.743195 3.41725,-15.849074 3.40982,-2.161259 3.41716,-0.851341 3.39996,-0.131025 3.41676,2.095737 3.52631,-5.730516 3.80144,4.944658 4.02944,-3.536583 4.19796,1.440827 3.9522,-4.09326 3.69879,0.589428 3.69188,-0.163718 3.75526,-7.793541 3.8892,-0.392939 3.87476,-1.866497 3.98625,-0.03281 3.93021,-1.571774 4.07177,0.392978 3.81942,1.408075 3.42581,-2.095756 3.37083,0.851379 3.58636,-0.03273 3.39946,-1.473559 3.41809,1.473559 3.40226,-0.0655 3.39686,-0.03277 3.40224,2.128508 3.3948,-1.146103 3.3884,-2.488695 3.40043,0.491192 3.42715,1.277089 3.41814,-1.244318 3.43567,3.634779 3.42823,-3.274572 3.45224,0.03275 3.4187,-1.113371 3.37166,0.654891 3.38698,0.753165 3.35423,0.65491 3.36444,-0.392919 3.38914,0.09824 3.38172,0.687662 3.39714,-1.801014 3.39969,1.473558 3.37225,-1.244337 3.38636,-1.080621 3.37736,1.113333 3.39802,2.194011 3.4466,-3.110894 3.43402,1.244338 3.42275,-0.622159 3.4211,3.602047 3.47772,-4.322441 3.50476,0.06548 3.52771,-0.753164 3.5274,0.687681 3.54084,1.768263 3.53161,-2.193992 3.55119,1.408095 3.53184,-0.654911 3.54419,0.42569 3.54759,-0.360206 3.55981,-0.09827 3.55936,0.09829 3.56151,0.261953 3.55937,-0.818668 3.56404,-0.556656 3.55089,1.015098 v -1.833766 0 l -3.55089,0.556657 -3.56404,-1.277031 -3.55937,-0.360226 -3.56151,0.785857 -3.55936,0.556735 -3.55981,-0.294743 -3.54759,-0.03273 -3.54419,0.360187 -3.53184,-0.65491 -3.55119,0.687681 -3.53161,-0.818667 -3.54084,0.982385 -3.5274,0.360207 -3.52771,-0.163718 -3.50476,0.19645 -3.47772,-2.881615 -3.4211,3.733014 -3.42275,-0.556657 -3.43402,-0.45846 -3.4466,-0.42571 -3.39802,0.03277 -3.37736,0.851361 -3.38636,-0.229202 -3.37225,-0.589427 -3.39969,0.62214 -3.39714,-2.259455 -3.38172,0.22922 -3.38914,0.818648 -3.36444,0.392997 -3.35423,-0.785916 -3.38698,1.604545 -3.37166,-0.523964 -3.4187,0.06548 -3.45224,0.622199 -3.42823,-3.012601 -3.43567,2.259455 -3.41814,-0.851379 -3.42715,1.997502 -3.40043,-0.09825 -3.3884,-2.619662 -3.3948,1.670048 -3.40224,0.360206 -3.39686,-1.932 -3.40226,0.720375 -3.41809,1.801033 -3.39946,0.556676 -3.58636,-0.229201 -3.37083,-0.982386 -3.42581,-1.9e-5 -3.81942,0.949634 -4.07177,0.261972 -3.93021,-0.392919 -3.98625,0.818609 -3.87476,-0.753145 -3.8892,0.523944 -3.75526,8.186479 -3.69188,-1.93198 -3.69879,4.911868 -3.9522,-4.944639 -4.19796,6.549184 -4.02944,-2.750667 -3.80144,-1.408056 -3.52631,1.670047 -3.41676,1.178855 -3.39996,3.536544 -3.41716,-0.06546 -3.40982,-0.458461 -3.41725,-3.274611 -3.40987,4.617184 -3.4105,0.753165 -3.40466,-1.768263 -3.41534,1.146103 -3.41067,3.307324 -3.38676,9.168865 -3.41912,-9.922029 -3.4071,11.199157 -3.50591,1.277051 -3.467311,-12.083231 -3.549116,20.007758 -3.550638,5.141141 -3.562614,4.61713 -3.547704,-3.24184 -3.585561,28.42348 -3.692006,16.14375 -3.861593,29.83158 z"
           clip-path="url(#p578d4dad70)" />
      </g>
      <g
         style="stroke-width:0.970746"
         id="matplotlib.axis_1">
        <g
           style="stroke-width:0.970746"
           id="xtick_1">
          <g
             style="stroke-width:0.970746"
             id="line2d_1">
            <path
               inkscape:connector-curvature="0"
               id="path29"
               style="fill:none;stroke:#b0b0b0;stroke-width:0.776597;stroke-linecap:square"
               d="M 69.218182,252 V 34.56"
               clip-path="url(#p578d4dad70)" />
          </g>
          <g
             style="stroke-width:0.970746"
             id="line2d_2">
            <defs
               id="defs33">
              <path
                 inkscape:connector-curvature="0"
                 style="stroke:#000000;stroke-width:0.8"
                 id="md0838a9cfd"
                 d="M 0,0 V 3.5" />
            </defs>
            <g
               style="stroke-width:0.970746"
               id="g37">
              <use
                 height="100%"
                 width="100%"
                 id="use35"
                 y="252"
                 xlink:href="#md0838a9cfd"
                 x="69.218185"
                 style="stroke:#000000;stroke-width:0.776597" />
            </g>
          </g>
          <g
             style="stroke-width:0.970746"
             id="text_1">
            <!-- 0 -->
            <defs
               id="defs41">
              <path
                 inkscape:connector-curvature="0"
                 id="DejaVuSans-48"
                 d="m 31.78125,66.40625 q -7.609375,0 -11.453125,-7.5 Q 16.5,51.421875 16.5,36.375 q 0,-14.984375 3.828125,-22.484375 3.84375,-7.5 11.453125,-7.5 7.671875,0 11.5,7.5 3.84375,7.5 3.84375,22.484375 0,15.046875 -3.84375,22.53125 -3.828125,7.5 -11.5,7.5 z m 0,7.8125 q 12.265625,0 18.734375,-9.703125 6.46875,-9.6875 6.46875,-28.140625 0,-18.40625 -6.46875,-28.109375 -6.46875,-9.6875 -18.734375,-9.6875 -12.25,0 -18.71875,9.6875 Q 6.59375,17.96875 6.59375,36.375 q 0,18.453125 6.46875,28.140625 6.46875,9.703125 18.71875,9.703125 z" />
            </defs>
            <g
               style="stroke-width:0.970746"
               id="g45"
               transform="matrix(0.2,0,0,-0.2,62.855682,274.19687)">
              <use
                 style="stroke-width:0.970746"
                 height="100%"
                 width="100%"
                 y="0"
                 x="0"
                 id="use43"
                 xlink:href="#DejaVuSans-48" />
            </g>
          </g>
        </g>
        <g
           style="stroke-width:0.970746"
           id="xtick_2">
          <g
             style="stroke-width:0.970746"
             id="line2d_3">
            <path
               inkscape:connector-curvature="0"
               id="path49"
               style="fill:none;stroke:#b0b0b0;stroke-width:0.776597;stroke-linecap:square"
               d="M 158.97146,252 V 34.56"
               clip-path="url(#p578d4dad70)" />
          </g>
          <g
             style="stroke-width:0.970746"
             id="line2d_4">
            <g
               style="stroke-width:0.970746"
               id="g54">
              <use
                 height="100%"
                 width="100%"
                 id="use52"
                 y="252"
                 xlink:href="#md0838a9cfd"
                 x="158.97147"
                 style="stroke:#000000;stroke-width:0.776597" />
            </g>
          </g>
          <g
             style="stroke-width:0.970746"
             id="text_2">
            <!-- 10 -->
            <defs
               id="defs58">
              <path
                 inkscape:connector-curvature="0"
                 id="DejaVuSans-49"
                 d="m 12.40625,8.296875 h 16.109375 v 55.625 L 10.984375,60.40625 v 8.984375 l 17.4375,3.515625 H 38.28125 V 8.296875 H 54.390625 V 0 H 12.40625 Z" />
            </defs>
            <g
               style="stroke-width:0.970746"
               id="g64"
               transform="matrix(0.2,0,0,-0.2,146.24646,274.19687)">
              <use
                 style="stroke-width:0.970746"
                 height="100%"
                 width="100%"
                 y="0"
                 x="0"
                 id="use60"
                 xlink:href="#DejaVuSans-49" />
              <use
                 style="stroke-width:0.970746"
                 height="100%"
                 width="100%"
                 y="0"
                 id="use62"
                 xlink:href="#DejaVuSans-48"
                 x="63.623047" />
            </g>
          </g>
        </g>
        <g
           style="stroke-width:0.970746"
           id="xtick_3">
          <g
             style="stroke-width:0.970746"
             id="line2d_5">
            <path
               inkscape:connector-curvature="0"
               id="path68"
               style="fill:none;stroke:#b0b0b0;stroke-width:0.776597;stroke-linecap:square"
               d="M 248.72474,252 V 34.56"
               clip-path="url(#p578d4dad70)" />
          </g>
          <g
             style="stroke-width:0.970746"
             id="line2d_6">
            <g
               style="stroke-width:0.970746"
               id="g73">
              <use
                 height="100%"
                 width="100%"
                 id="use71"
                 y="252"
                 xlink:href="#md0838a9cfd"
                 x="248.72475"
                 style="stroke:#000000;stroke-width:0.776597" />
            </g>
          </g>
          <g
             style="stroke-width:0.970746"
             id="text_3">
            <!-- 20 -->
            <defs
               id="defs77">
              <path
                 inkscape:connector-curvature="0"
                 id="DejaVuSans-50"
                 d="M 19.1875,8.296875 H 53.609375 V 0 H 7.328125 v 8.296875 q 5.609375,5.8125 15.296875,15.59375 9.703125,9.796875 12.1875,12.640625 4.734375,5.3125 6.609375,9 1.890625,3.6875 1.890625,7.25 0,5.8125 -4.078125,9.46875 -4.078125,3.671875 -10.625,3.671875 -4.640625,0 -9.796875,-1.609375 -5.140625,-1.609375 -11,-4.890625 v 9.96875 Q 13.765625,71.78125 18.9375,73 q 5.1875,1.21875 9.484375,1.21875 11.328125,0 18.0625,-5.671875 6.734375,-5.65625 6.734375,-15.125 0,-4.5 -1.6875,-8.53125 Q 49.859375,40.875 45.40625,35.40625 44.1875,33.984375 37.640625,27.21875 31.109375,20.453125 19.1875,8.296875 Z" />
            </defs>
            <g
               style="stroke-width:0.970746"
               id="g83"
               transform="matrix(0.2,0,0,-0.2,235.99974,274.19687)">
              <use
                 style="stroke-width:0.970746"
                 height="100%"
                 width="100%"
                 y="0"
                 x="0"
                 id="use79"
                 xlink:href="#DejaVuSans-50" />
              <use
                 style="stroke-width:0.970746"
                 height="100%"
                 width="100%"
                 y="0"
                 id="use81"
                 xlink:href="#DejaVuSans-48"
                 x="63.623047" />
            </g>
          </g>
        </g>
        <g
           style="stroke-width:0.970746"
           id="xtick_4">
          <g
             style="stroke-width:0.970746"
             id="line2d_7">
            <path
               inkscape:connector-curvature="0"
               id="path87"
               style="fill:none;stroke:#b0b0b0;stroke-width:0.776597;stroke-linecap:square"
               d="M 338.47802,252 V 34.56"
               clip-path="url(#p578d4dad70)" />
          </g>
          <g
             style="stroke-width:0.970746"
             id="line2d_8">
            <g
               style="stroke-width:0.970746"
               id="g92">
              <use
                 height="100%"
                 width="100%"
                 id="use90"
                 y="252"
                 xlink:href="#md0838a9cfd"
                 x="338.47803"
                 style="stroke:#000000;stroke-width:0.776597" />
            </g>
          </g>
          <g
             style="stroke-width:0.970746"
             id="text_4">
            <!-- 30 -->
            <defs
               id="defs96">
              <path
                 inkscape:connector-curvature="0"
                 id="DejaVuSans-51"
                 d="M 40.578125,39.3125 Q 47.65625,37.796875 51.625,33 q 3.984375,-4.78125 3.984375,-11.8125 0,-10.78125 -7.421875,-16.703125 -7.421875,-5.90625 -21.09375,-5.90625 -4.578125,0 -9.4375,0.90625 -4.859375,0.90625 -10.03125,2.71875 v 9.515625 q 4.09375,-2.390625 8.96875,-3.609375 4.890625,-1.21875 10.21875,-1.21875 9.265625,0 14.125,3.65625 4.859375,3.65625 4.859375,10.640625 0,6.453125 -4.515625,10.078125 -4.515625,3.640625 -12.5625,3.640625 h -8.5 v 8.109375 h 8.890625 q 7.265625,0 11.125,2.90625 3.859375,2.90625 3.859375,8.375 0,5.609375 -3.984375,8.609375 -3.96875,3.015625 -11.390625,3.015625 -4.0625,0 -8.703125,-0.890625 Q 15.375,64.15625 9.8125,62.3125 v 8.78125 q 5.625,1.5625 10.53125,2.34375 4.90625,0.78125 9.25,0.78125 11.234375,0 17.765625,-5.109375 6.546875,-5.09375 6.546875,-13.78125 0,-6.0625 -3.46875,-10.234375 -3.46875,-4.171875 -9.859375,-5.78125 z" />
            </defs>
            <g
               style="stroke-width:0.970746"
               id="g102"
               transform="matrix(0.2,0,0,-0.2,325.75302,274.19687)">
              <use
                 style="stroke-width:0.970746"
                 height="100%"
                 width="100%"
                 y="0"
                 x="0"
                 id="use98"
                 xlink:href="#DejaVuSans-51" />
              <use
                 style="stroke-width:0.970746"
                 height="100%"
                 width="100%"
                 y="0"
                 id="use100"
                 xlink:href="#DejaVuSans-48"
                 x="63.623047" />
            </g>
          </g>
        </g>
        <g
           style="stroke-width:0.970746"
           id="text_5">
          <!-- Training Time for 90 Epochs (hours) -->
          <defs
             id="defs126">
            <path
               inkscape:connector-curvature="0"
               id="DejaVuSans-84"
               d="M -0.296875,72.90625 H 61.375 v -8.3125 H 35.5 V 0 H 25.59375 V 64.59375 H -0.296875 Z" />
            <path
               inkscape:connector-curvature="0"
               id="DejaVuSans-114"
               d="m 41.109375,46.296875 q -1.515625,0.875 -3.296875,1.28125 Q 36.03125,48 33.890625,48 26.265625,48 22.1875,43.046875 18.109375,38.09375 18.109375,28.8125 V 0 h -9.03125 v 54.6875 h 9.03125 v -8.5 q 2.84375,4.984375 7.375,7.390625 Q 30.03125,56 36.53125,56 q 0.921875,0 2.046875,-0.125 1.125,-0.109375 2.484375,-0.359375 z" />
            <path
               inkscape:connector-curvature="0"
               id="DejaVuSans-97"
               d="m 34.28125,27.484375 q -10.890625,0 -15.09375,-2.484375 -4.203125,-2.484375 -4.203125,-8.5 0,-4.78125 3.15625,-7.59375 3.15625,-2.796875 8.5625,-2.796875 7.484375,0 12,5.296875 4.515625,5.296875 4.515625,14.078125 v 2 z m 17.921875,3.71875 V 0 H 43.21875 v 8.296875 q -3.078125,-4.96875 -7.671875,-7.34375 -4.59375,-2.375 -11.234375,-2.375 -8.390625,0 -13.359375,4.71875 Q 6,8.015625 6,15.921875 q 0,9.21875 6.171875,13.90625 6.1875,4.6875 18.4375,4.6875 H 43.21875 v 0.890625 q 0,6.203125 -4.078125,9.59375 -4.078125,3.390625 -11.453125,3.390625 -4.6875,0 -9.140625,-1.125 -4.4375,-1.125 -8.53125,-3.375 v 8.3125 q 4.921875,1.90625 9.5625,2.84375 Q 24.21875,56 28.609375,56 q 11.875,0 17.734375,-6.15625 5.859375,-6.140625 5.859375,-18.640625 z" />
            <path
               inkscape:connector-curvature="0"
               id="DejaVuSans-105"
               d="M 9.421875,54.6875 H 18.40625 V 0 H 9.421875 Z m 0,21.296875 H 18.40625 V 64.59375 H 9.421875 Z" />
            <path
               inkscape:connector-curvature="0"
               id="DejaVuSans-110"
               d="M 54.890625,33.015625 V 0 H 45.90625 v 32.71875 q 0,7.765625 -3.03125,11.609375 -3.03125,3.859375 -9.078125,3.859375 -7.28125,0 -11.484375,-4.640625 -4.203125,-4.625 -4.203125,-12.640625 V 0 h -9.03125 v 54.6875 h 9.03125 v -8.5 q 3.234375,4.9375 7.59375,7.375 4.375,2.4375 10.09375,2.4375 9.421875,0 14.25,-5.828125 4.84375,-5.828125 4.84375,-17.15625 z" />
            <path
               inkscape:connector-curvature="0"
               id="DejaVuSans-103"
               d="m 45.40625,27.984375 q 0,9.765625 -4.03125,15.125 -4.015625,5.375 -11.296875,5.375 -7.21875,0 -11.25,-5.375 -4.03125,-5.359375 -4.03125,-15.125 0,-9.71875 4.03125,-15.09375 4.03125,-5.375 11.25,-5.375 7.28125,0 11.296875,5.375 4.03125,5.375 4.03125,15.09375 z M 54.390625,6.78125 q 0,-13.953125 -6.203125,-20.765625 -6.1875,-6.8125 -18.984375,-6.8125 -4.734375,0 -8.9375,0.703125 -4.203125,0.703125 -8.15625,2.171875 V -9.1875 q 3.953125,-2.140625 7.8125,-3.15625 3.859375,-1.03125 7.859375,-1.03125 8.84375,0 13.234375,4.609375 4.390625,4.609375 4.390625,13.9375 V 9.625 Q 42.625,4.78125 38.28125,2.390625 33.9375,0 27.875,0 17.828125,0 11.671875,7.65625 q -6.15625,7.671875 -6.15625,20.328125 0,12.6875 6.15625,20.34375 Q 17.828125,56 27.875,56 q 6.0625,0 10.40625,-2.390625 4.34375,-2.390625 7.125,-7.21875 V 54.6875 h 8.984375 z" />
            <path
               inkscape:connector-curvature="0"
               d=""
               id="DejaVuSans-32" />
            <path
               inkscape:connector-curvature="0"
               id="DejaVuSans-109"
               d="M 52,44.1875 Q 55.375,50.25 60.0625,53.125 64.75,56 71.09375,56 q 8.546875,0 13.1875,-5.984375 4.640625,-5.96875 4.640625,-17 V 0 h -9.03125 v 32.71875 q 0,7.859375 -2.796875,11.65625 -2.78125,3.8125 -8.484375,3.8125 -6.984375,0 -11.046875,-4.640625 -4.046875,-4.625 -4.046875,-12.640625 V 0 h -9.03125 v 32.71875 q 0,7.90625 -2.78125,11.6875 -2.78125,3.78125 -8.59375,3.78125 -6.890625,0 -10.953125,-4.65625 -4.046875,-4.65625 -4.046875,-12.625 V 0 h -9.03125 v 54.6875 h 9.03125 v -8.5 q 3.078125,5.03125 7.375,7.421875 Q 29.78125,56 35.6875,56 41.65625,56 45.828125,52.96875 50,49.953125 52,44.1875 Z" />
            <path
               inkscape:connector-curvature="0"
               id="DejaVuSans-101"
               d="m 56.203125,29.59375 v -4.390625 h -41.3125 q 0.59375,-9.28125 5.59375,-14.140625 5,-4.859375 13.9375,-4.859375 5.171875,0 10.03125,1.265625 4.859375,1.265625 9.65625,3.8125 v -8.5 q -4.84375,-2.046875 -9.921875,-3.125 -5.078125,-1.078125 -10.296875,-1.078125 -13.09375,0 -20.734375,7.609375 -7.640625,7.625 -7.640625,20.625 0,13.421875 7.25,21.296875 Q 20.015625,56 32.328125,56 q 11.03125,0 17.453125,-7.109375 6.421875,-7.09375 6.421875,-19.296875 z m -8.984375,2.640625 q -0.09375,7.359375 -4.125,11.75 -4.03125,4.40625 -10.671875,4.40625 -7.515625,0 -12.03125,-4.25 -4.515625,-4.25 -5.203125,-11.96875 z" />
            <path
               inkscape:connector-curvature="0"
               id="DejaVuSans-102"
               d="M 37.109375,75.984375 V 68.5 h -8.59375 q -4.828125,0 -6.71875,-1.953125 -1.875,-1.953125 -1.875,-7.03125 V 54.6875 H 34.71875 V 47.703125 H 19.921875 V 0 h -9.03125 V 47.703125 H 2.296875 V 54.6875 h 8.59375 V 58.5 q 0,9.125 4.25,13.296875 4.25,4.1875 13.46875,4.1875 z" />
            <path
               inkscape:connector-curvature="0"
               id="DejaVuSans-111"
               d="m 30.609375,48.390625 q -7.21875,0 -11.421875,-5.640625 -4.203125,-5.640625 -4.203125,-15.453125 0,-9.8125 4.171875,-15.453125 4.1875,-5.640625 11.453125,-5.640625 7.1875,0 11.375,5.65625 4.203125,5.671875 4.203125,15.4375 0,9.71875 -4.203125,15.40625 -4.1875,5.6875 -11.375,5.6875 z m 0,7.609375 q 11.71875,0 18.40625,-7.625 6.703125,-7.609375 6.703125,-21.078125 0,-13.421875 -6.703125,-21.078125 -6.6875,-7.640625 -18.40625,-7.640625 -11.765625,0 -18.4375,7.640625 -6.65625,7.65625 -6.65625,21.078125 0,13.46875 6.65625,21.078125 Q 18.84375,56 30.609375,56 Z" />
            <path
               inkscape:connector-curvature="0"
               id="DejaVuSans-57"
               d="M 10.984375,1.515625 V 10.5 Q 14.703125,8.734375 18.5,7.8125 q 3.8125,-0.921875 7.484375,-0.921875 9.765625,0 14.90625,6.5625 5.15625,6.5625 5.890625,19.953125 -2.828125,-4.203125 -7.1875,-6.453125 -4.34375,-2.25 -9.609375,-2.25 -10.9375,0 -17.3125,6.609375 -6.375,6.625 -6.375,18.109375 0,11.21875 6.640625,18 6.640625,6.796875 17.671875,6.796875 12.65625,0 19.3125,-9.703125 6.671875,-9.6875 6.671875,-28.140625 0,-17.234375 -8.1875,-27.515625 -8.171875,-10.28125 -21.984375,-10.28125 -3.71875,0 -7.53125,0.734375 -3.796875,0.734375 -7.90625,2.203125 z m 19.625,30.90625 q 6.640625,0 10.515625,4.53125 3.890625,4.546875 3.890625,12.46875 0,7.859375 -3.890625,12.421875 -3.875,4.5625 -10.515625,4.5625 -6.640625,0 -10.515625,-4.5625 -3.875,-4.5625 -3.875,-12.421875 0,-7.921875 3.875,-12.46875 3.875,-4.53125 10.515625,-4.53125 z" />
            <path
               inkscape:connector-curvature="0"
               id="DejaVuSans-69"
               d="m 9.8125,72.90625 h 46.09375 v -8.3125 H 19.671875 V 43.015625 h 34.71875 V 34.71875 H 19.671875 V 8.296875 H 56.78125 V 0 H 9.8125 Z" />
            <path
               inkscape:connector-curvature="0"
               id="DejaVuSans-112"
               d="m 18.109375,8.203125 v -29 H 9.078125 V 54.6875 h 9.03125 v -8.296875 q 2.84375,4.875 7.15625,7.234375 Q 29.59375,56 35.59375,56 q 9.96875,0 16.1875,-7.90625 6.234375,-7.90625 6.234375,-20.796875 0,-12.890625 -6.234375,-20.8125 -6.21875,-7.90625 -16.1875,-7.90625 -6,0 -10.328125,2.375 -4.3125,2.375 -7.15625,7.25 z M 48.6875,27.296875 q 0,9.90625 -4.078125,15.546875 -4.078125,5.640625 -11.203125,5.640625 -7.140625,0 -11.21875,-5.640625 -4.078125,-5.640625 -4.078125,-15.546875 0,-9.90625 4.078125,-15.546875 4.078125,-5.640625 11.21875,-5.640625 7.125,0 11.203125,5.640625 4.078125,5.640625 4.078125,15.546875 z" />
            <path
               inkscape:connector-curvature="0"
               id="DejaVuSans-99"
               d="M 48.78125,52.59375 V 44.1875 q -3.8125,2.109375 -7.640625,3.15625 -3.828125,1.046875 -7.734375,1.046875 -8.75,0 -13.59375,-5.546875 -4.828125,-5.53125 -4.828125,-15.546875 0,-10.015625 4.828125,-15.5625 4.84375,-5.53125 13.59375,-5.53125 3.90625,0 7.734375,1.046875 3.828125,1.046875 7.640625,3.15625 v -8.3125 q -3.765625,-1.75 -7.796875,-2.625 -4.015625,-0.890625 -8.5625,-0.890625 -12.359375,0 -19.640625,7.765625 -7.265625,7.765625 -7.265625,20.953125 0,13.375 7.34375,21.03125 Q 20.21875,56 33.015625,56 q 4.140625,0 8.09375,-0.859375 3.953125,-0.84375 7.671875,-2.546875 z" />
            <path
               inkscape:connector-curvature="0"
               id="DejaVuSans-104"
               d="M 54.890625,33.015625 V 0 H 45.90625 v 32.71875 q 0,7.765625 -3.03125,11.609375 -3.03125,3.859375 -9.078125,3.859375 -7.28125,0 -11.484375,-4.640625 -4.203125,-4.625 -4.203125,-12.640625 V 0 h -9.03125 v 75.984375 h 9.03125 V 46.1875 q 3.234375,4.9375 7.59375,7.375 4.375,2.4375 10.09375,2.4375 9.421875,0 14.25,-5.828125 4.84375,-5.828125 4.84375,-17.15625 z" />
            <path
               inkscape:connector-curvature="0"
               id="DejaVuSans-115"
               d="m 44.28125,53.078125 v -8.5 Q 40.484375,46.53125 36.375,47.5 q -4.09375,0.984375 -8.5,0.984375 -6.6875,0 -10.03125,-2.046875 Q 14.5,44.390625 14.5,40.28125 q 0,-3.125 2.390625,-4.90625 2.390625,-1.78125 9.625,-3.390625 l 3.078125,-0.6875 Q 39.15625,29.25 43.1875,25.515625 47.21875,21.78125 47.21875,15.09375 q 0,-7.625 -6.03125,-12.078125 -6.03125,-4.4375 -16.578125,-4.4375 -4.390625,0 -9.15625,0.859375 Q 10.6875,0.296875 5.421875,2 v 9.28125 q 4.984375,-2.59375 9.8125,-3.890625 4.828125,-1.28125 9.578125,-1.28125 6.34375,0 9.75,2.171875 3.421875,2.171875 3.421875,6.125 0,3.65625 -2.46875,5.609375 -2.453125,1.953125 -10.8125,3.765625 l -3.125,0.734375 q -8.34375,1.75 -12.0625,5.390625 -3.703125,3.640625 -3.703125,9.984375 0,7.71875 5.46875,11.90625 Q 16.75,56 26.8125,56 q 4.96875,0 9.359375,-0.734375 4.40625,-0.71875 8.109375,-2.1875 z" />
            <path
               inkscape:connector-curvature="0"
               id="DejaVuSans-40"
               d="M 31,75.875 Q 24.46875,64.65625 21.28125,53.65625 18.109375,42.671875 18.109375,31.390625 18.109375,20.125 21.3125,9.0625 24.515625,-2 31,-13.1875 H 23.1875 Q 15.875,-1.703125 12.234375,9.375 8.59375,20.453125 8.59375,31.390625 q 0,10.890625 3.609375,21.921875 3.625,11.046875 10.984375,22.5625 z" />
            <path
               inkscape:connector-curvature="0"
               id="DejaVuSans-117"
               d="M 8.5,21.578125 V 54.6875 h 8.984375 V 21.921875 q 0,-7.765625 3.015625,-11.65625 3.03125,-3.875 9.09375,-3.875 7.265625,0 11.484375,4.640625 4.234375,4.640625 4.234375,12.65625 v 31 h 8.984375 V 0 H 45.3125 V 8.40625 Q 42.046875,3.421875 37.71875,1 33.40625,-1.421875 27.6875,-1.421875 18.265625,-1.421875 13.375,4.4375 8.5,10.296875 8.5,21.578125 Z M 31.109375,56 Z" />
            <path
               inkscape:connector-curvature="0"
               id="DejaVuSans-41"
               d="m 8.015625,75.875 h 7.8125 q 7.3125,-11.515625 10.953125,-22.5625 3.640625,-11.03125 3.640625,-21.921875 0,-10.9375 -3.640625,-22.015625 -3.640625,-11.078125 -10.953125,-22.5625 h -7.8125 Q 14.5,-2 17.703125,9.0625 20.90625,20.125 20.90625,31.390625 q 0,11.28125 -3.203125,22.265625 -3.203125,11 -9.6875,22.21875 z" />
          </defs>
          <g
             style="stroke-width:0.970746"
             id="g198"
             transform="matrix(0.2,0,0,-0.2,41.60625,297.55313)">
            <use
               style="stroke-width:0.970746"
               height="100%"
               width="100%"
               y="0"
               x="0"
               id="use128"
               xlink:href="#DejaVuSans-84" />
            <use
               style="stroke-width:0.970746"
               height="100%"
               width="100%"
               y="0"
               id="use130"
               xlink:href="#DejaVuSans-114"
               x="60.865234" />
            <use
               style="stroke-width:0.970746"
               height="100%"
               width="100%"
               y="0"
               id="use132"
               xlink:href="#DejaVuSans-97"
               x="101.97852" />
            <use
               style="stroke-width:0.970746"
               height="100%"
               width="100%"
               y="0"
               id="use134"
               xlink:href="#DejaVuSans-105"
               x="163.25781" />
            <use
               style="stroke-width:0.970746"
               height="100%"
               width="100%"
               y="0"
               id="use136"
               xlink:href="#DejaVuSans-110"
               x="191.04102" />
            <use
               style="stroke-width:0.970746"
               height="100%"
               width="100%"
               y="0"
               id="use138"
               xlink:href="#DejaVuSans-105"
               x="254.41992" />
            <use
               style="stroke-width:0.970746"
               height="100%"
               width="100%"
               y="0"
               id="use140"
               xlink:href="#DejaVuSans-110"
               x="282.20312" />
            <use
               style="stroke-width:0.970746"
               height="100%"
               width="100%"
               y="0"
               id="use142"
               xlink:href="#DejaVuSans-103"
               x="345.58203" />
            <use
               style="stroke-width:0.970746"
               height="100%"
               width="100%"
               y="0"
               id="use144"
               xlink:href="#DejaVuSans-32"
               x="409.05859" />
            <use
               style="stroke-width:0.970746"
               height="100%"
               width="100%"
               y="0"
               id="use146"
               xlink:href="#DejaVuSans-84"
               x="440.8457" />
            <use
               style="stroke-width:0.970746"
               height="100%"
               width="100%"
               y="0"
               id="use148"
               xlink:href="#DejaVuSans-105"
               x="501.88281" />
            <use
               style="stroke-width:0.970746"
               height="100%"
               width="100%"
               y="0"
               id="use150"
               xlink:href="#DejaVuSans-109"
               x="529.66602" />
            <use
               style="stroke-width:0.970746"
               height="100%"
               width="100%"
               y="0"
               id="use152"
               xlink:href="#DejaVuSans-101"
               x="627.07812" />
            <use
               style="stroke-width:0.970746"
               height="100%"
               width="100%"
               y="0"
               id="use154"
               xlink:href="#DejaVuSans-32"
               x="688.60156" />
            <use
               style="stroke-width:0.970746"
               height="100%"
               width="100%"
               y="0"
               id="use156"
               xlink:href="#DejaVuSans-102"
               x="720.38867" />
            <use
               style="stroke-width:0.970746"
               height="100%"
               width="100%"
               y="0"
               id="use158"
               xlink:href="#DejaVuSans-111"
               x="755.59375" />
            <use
               style="stroke-width:0.970746"
               height="100%"
               width="100%"
               y="0"
               id="use160"
               xlink:href="#DejaVuSans-114"
               x="816.77539" />
            <use
               style="stroke-width:0.970746"
               height="100%"
               width="100%"
               y="0"
               id="use162"
               xlink:href="#DejaVuSans-32"
               x="857.88867" />
            <use
               style="stroke-width:0.970746"
               height="100%"
               width="100%"
               y="0"
               id="use164"
               xlink:href="#DejaVuSans-57"
               x="889.67578" />
            <use
               style="stroke-width:0.970746"
               height="100%"
               width="100%"
               y="0"
               id="use166"
               xlink:href="#DejaVuSans-48"
               x="953.29883" />
            <use
               style="stroke-width:0.970746"
               height="100%"
               width="100%"
               y="0"
               id="use168"
               xlink:href="#DejaVuSans-32"
               x="1016.9219" />
            <use
               style="stroke-width:0.970746"
               height="100%"
               width="100%"
               y="0"
               id="use170"
               xlink:href="#DejaVuSans-69"
               x="1048.709" />
            <use
               style="stroke-width:0.970746"
               height="100%"
               width="100%"
               y="0"
               id="use172"
               xlink:href="#DejaVuSans-112"
               x="1111.8926" />
            <use
               style="stroke-width:0.970746"
               height="100%"
               width="100%"
               y="0"
               id="use174"
               xlink:href="#DejaVuSans-111"
               x="1175.3691" />
            <use
               style="stroke-width:0.970746"
               height="100%"
               width="100%"
               y="0"
               id="use176"
               xlink:href="#DejaVuSans-99"
               x="1236.5508" />
            <use
               style="stroke-width:0.970746"
               height="100%"
               width="100%"
               y="0"
               id="use178"
               xlink:href="#DejaVuSans-104"
               x="1291.5312" />
            <use
               style="stroke-width:0.970746"
               height="100%"
               width="100%"
               y="0"
               id="use180"
               xlink:href="#DejaVuSans-115"
               x="1354.9102" />
            <use
               style="stroke-width:0.970746"
               height="100%"
               width="100%"
               y="0"
               id="use182"
               xlink:href="#DejaVuSans-32"
               x="1407.0098" />
            <use
               style="stroke-width:0.970746"
               height="100%"
               width="100%"
               y="0"
               id="use184"
               xlink:href="#DejaVuSans-40"
               x="1438.7969" />
            <use
               style="stroke-width:0.970746"
               height="100%"
               width="100%"
               y="0"
               id="use186"
               xlink:href="#DejaVuSans-104"
               x="1477.8105" />
            <use
               style="stroke-width:0.970746"
               height="100%"
               width="100%"
               y="0"
               id="use188"
               xlink:href="#DejaVuSans-111"
               x="1541.1895" />
            <use
               style="stroke-width:0.970746"
               height="100%"
               width="100%"
               y="0"
               id="use190"
               xlink:href="#DejaVuSans-117"
               x="1602.3711" />
            <use
               style="stroke-width:0.970746"
               height="100%"
               width="100%"
               y="0"
               id="use192"
               xlink:href="#DejaVuSans-114"
               x="1665.75" />
            <use
               style="stroke-width:0.970746"
               height="100%"
               width="100%"
               y="0"
               id="use194"
               xlink:href="#DejaVuSans-115"
               x="1706.8633" />
            <use
               style="stroke-width:0.970746"
               height="100%"
               width="100%"
               y="0"
               id="use196"
               xlink:href="#DejaVuSans-41"
               x="1758.9629" />
          </g>
        </g>
      </g>
      <g
         style="stroke-width:0.970746"
         id="matplotlib.axis_2">
        <g
           style="stroke-width:0.970746"
           id="ytick_1">
          <g
             style="stroke-width:0.970746"
             id="line2d_9">
            <path
               inkscape:connector-curvature="0"
               id="path202"
               style="fill:none;stroke:#b0b0b0;stroke-width:0.776597;stroke-linecap:square"
               d="M 54,220.30755 H 388.8"
               clip-path="url(#p578d4dad70)" />
          </g>
          <g
             style="stroke-width:0.970746"
             id="line2d_10">
            <defs
               id="defs206">
              <path
                 inkscape:connector-curvature="0"
                 style="stroke:#000000;stroke-width:0.8"
                 id="m48dd8d3946"
                 d="M 0,0 H -3.5" />
            </defs>
            <g
               style="stroke-width:0.970746"
               id="g210">
              <use
                 height="100%"
                 width="100%"
                 id="use208"
                 y="220.30756"
                 xlink:href="#m48dd8d3946"
                 x="54"
                 style="stroke:#000000;stroke-width:0.776597" />
            </g>
          </g>
          <g
             style="stroke-width:0.970746"
             id="text_6">
            <!-- 0.4 -->
            <defs
               id="defs215">
              <path
                 inkscape:connector-curvature="0"
                 id="DejaVuSans-46"
                 d="M 10.6875,12.40625 H 21 V 0 H 10.6875 Z" />
              <path
                 inkscape:connector-curvature="0"
                 id="DejaVuSans-52"
                 d="M 37.796875,64.3125 12.890625,25.390625 h 24.90625 z m -2.59375,8.59375 h 12.40625 V 25.390625 h 10.40625 V 17.1875 H 47.609375 V 0 h -9.8125 V 17.1875 H 4.890625 v 9.515625 z" />
            </defs>
            <g
               style="stroke-width:0.970746"
               id="g223"
               transform="matrix(0.2,0,0,-0.2,15.19375,227.90599)">
              <use
                 style="stroke-width:0.970746"
                 height="100%"
                 width="100%"
                 y="0"
                 x="0"
                 id="use217"
                 xlink:href="#DejaVuSans-48" />
              <use
                 style="stroke-width:0.970746"
                 height="100%"
                 width="100%"
                 y="0"
                 id="use219"
                 xlink:href="#DejaVuSans-46"
                 x="63.623047" />
              <use
                 style="stroke-width:0.970746"
                 height="100%"
                 width="100%"
                 y="0"
                 id="use221"
                 xlink:href="#DejaVuSans-52"
                 x="95.410156" />
            </g>
          </g>
        </g>
        <g
           style="stroke-width:0.970746"
           id="ytick_2">
          <g
             style="stroke-width:0.970746"
             id="line2d_11">
            <path
               inkscape:connector-curvature="0"
               id="path227"
               style="fill:none;stroke:#b0b0b0;stroke-width:0.776597;stroke-linecap:square"
               d="M 54,154.81566 H 388.8"
               clip-path="url(#p578d4dad70)" />
          </g>
          <g
             style="stroke-width:0.970746"
             id="line2d_12">
            <g
               style="stroke-width:0.970746"
               id="g232">
              <use
                 height="100%"
                 width="100%"
                 id="use230"
                 y="154.81566"
                 xlink:href="#m48dd8d3946"
                 x="54"
                 style="stroke:#000000;stroke-width:0.776597" />
            </g>
          </g>
          <g
             style="stroke-width:0.970746"
             id="text_7">
            <!-- 0.6 -->
            <defs
               id="defs236">
              <path
                 inkscape:connector-curvature="0"
                 id="DejaVuSans-54"
                 d="m 33.015625,40.375 q -6.640625,0 -10.53125,-4.546875 -3.875,-4.53125 -3.875,-12.4375 0,-7.859375 3.875,-12.4375 3.890625,-4.5625 10.53125,-4.5625 6.640625,0 10.515625,4.5625 3.875,4.578125 3.875,12.4375 0,7.90625 -3.875,12.4375 Q 39.65625,40.375 33.015625,40.375 Z M 52.59375,71.296875 V 62.3125 q -3.71875,1.75 -7.5,2.671875 -3.78125,0.9375 -7.5,0.9375 -9.765625,0 -14.921875,-6.59375 -5.140625,-6.59375 -5.875,-19.921875 2.875,4.25 7.21875,6.515625 4.359375,2.265625 9.578125,2.265625 10.984375,0 17.359375,-6.671875 6.375,-6.65625 6.375,-18.125 0,-11.234375 -6.640625,-18.03125 -6.640625,-6.78125 -17.671875,-6.78125 -12.65625,0 -19.34375,9.6875 -6.6875,9.703125 -6.6875,28.109375 0,17.28125 8.203125,27.5625 8.203125,10.28125 22.015625,10.28125 3.71875,0 7.5,-0.734375 3.78125,-0.734375 7.890625,-2.1875 z" />
            </defs>
            <g
               style="stroke-width:0.970746"
               id="g244"
               transform="matrix(0.2,0,0,-0.2,15.19375,162.41409)">
              <use
                 style="stroke-width:0.970746"
                 height="100%"
                 width="100%"
                 y="0"
                 x="0"
                 id="use238"
                 xlink:href="#DejaVuSans-48" />
              <use
                 style="stroke-width:0.970746"
                 height="100%"
                 width="100%"
                 y="0"
                 id="use240"
                 xlink:href="#DejaVuSans-46"
                 x="63.623047" />
              <use
                 style="stroke-width:0.970746"
                 height="100%"
                 width="100%"
                 y="0"
                 id="use242"
                 xlink:href="#DejaVuSans-54"
                 x="95.410156" />
            </g>
          </g>
        </g>
        <g
           style="stroke-width:0.970746"
           id="ytick_3">
          <g
             style="stroke-width:0.970746"
             id="line2d_13">
            <path
               inkscape:connector-curvature="0"
               id="path248"
               style="fill:none;stroke:#b0b0b0;stroke-width:0.776597;stroke-linecap:square"
               d="M 54,89.323757 H 388.8"
               clip-path="url(#p578d4dad70)" />
          </g>
          <g
             style="stroke-width:0.970746"
             id="line2d_14">
            <g
               style="stroke-width:0.970746"
               id="g253">
              <use
                 height="100%"
                 width="100%"
                 id="use251"
                 y="89.323753"
                 xlink:href="#m48dd8d3946"
                 x="54"
                 style="stroke:#000000;stroke-width:0.776597" />
            </g>
          </g>
          <g
             style="stroke-width:0.970746"
             id="text_8">
            <!-- 0.8 -->
            <defs
               id="defs257">
              <path
                 inkscape:connector-curvature="0"
                 id="DejaVuSans-56"
                 d="m 31.78125,34.625 q -7.03125,0 -11.0625,-3.765625 -4.015625,-3.765625 -4.015625,-10.34375 0,-6.59375 4.015625,-10.359375 4.03125,-3.765625 11.0625,-3.765625 7.03125,0 11.078125,3.78125 4.0625,3.796875 4.0625,10.34375 0,6.578125 -4.03125,10.34375 Q 38.875,34.625 31.78125,34.625 Z m -9.859375,4.1875 Q 15.578125,40.375 12.03125,44.71875 8.5,49.078125 8.5,55.328125 q 0,8.734375 6.21875,13.8125 6.234375,5.078125 17.0625,5.078125 10.890625,0 17.09375,-5.078125 6.203125,-5.078125 6.203125,-13.8125 0,-6.25 -3.546875,-10.609375 Q 48,40.375 41.703125,38.8125 q 7.125,-1.65625 11.09375,-6.5 3.984375,-4.828125 3.984375,-11.796875 0,-10.609375 -6.46875,-16.28125 -6.46875,-5.65625 -18.53125,-5.65625 -12.046875,0 -18.53125,5.65625 -6.46875,5.671875 -6.46875,16.28125 0,6.96875 4,11.796875 4.015625,4.84375 11.140625,6.5 z M 18.3125,54.390625 q 0,-5.65625 3.53125,-8.828125 3.546875,-3.171875 9.9375,-3.171875 6.359375,0 9.9375,3.171875 3.59375,3.171875 3.59375,8.828125 0,5.671875 -3.59375,8.84375 -3.578125,3.171875 -9.9375,3.171875 -6.390625,0 -9.9375,-3.171875 Q 18.3125,60.0625 18.3125,54.390625 Z" />
            </defs>
            <g
               style="stroke-width:0.970746"
               id="g265"
               transform="matrix(0.2,0,0,-0.2,15.19375,96.922194)">
              <use
                 style="stroke-width:0.970746"
                 height="100%"
                 width="100%"
                 y="0"
                 x="0"
                 id="use259"
                 xlink:href="#DejaVuSans-48" />
              <use
                 style="stroke-width:0.970746"
                 height="100%"
                 width="100%"
                 y="0"
                 id="use261"
                 xlink:href="#DejaVuSans-46"
                 x="63.623047" />
              <use
                 style="stroke-width:0.970746"
                 height="100%"
                 width="100%"
                 y="0"
                 id="use263"
                 xlink:href="#DejaVuSans-56"
                 x="95.410156" />
            </g>
          </g>
        </g>
        <g
           style="stroke-width:0.970746"
           id="text_9">
          <!-- Accuracy -->
          <defs
             id="defs271">
            <path
               inkscape:connector-curvature="0"
               id="DejaVuSans-65"
               d="M 34.1875,63.1875 20.796875,26.90625 h 26.8125 z m -5.578125,9.71875 h 11.1875 L 67.578125,0 h -10.25 L 50.6875,18.703125 H 17.828125 L 11.1875,0 H 0.78125 Z" />
            <path
               inkscape:connector-curvature="0"
               id="DejaVuSans-121"
               d="M 32.171875,-5.078125 Q 28.375,-14.84375 24.75,-17.8125 q -3.609375,-2.984375 -9.65625,-2.984375 h -7.1875 v 7.515625 h 5.28125 q 3.703125,0 5.75,1.765625 2.0625,1.75 4.546875,8.296875 L 25.09375,0.875 2.984375,54.6875 H 12.5 L 29.59375,11.921875 46.6875,54.6875 h 9.515625 z" />
          </defs>
          <g
             style="stroke-width:0.970746"
             id="g289"
             transform="matrix(0,-0.2,-0.2,0,7.034375,189.10969)">
            <use
               style="stroke-width:0.970746"
               height="100%"
               width="100%"
               y="0"
               x="0"
               id="use273"
               xlink:href="#DejaVuSans-65" />
            <use
               style="stroke-width:0.970746"
               height="100%"
               width="100%"
               y="0"
               id="use275"
               xlink:href="#DejaVuSans-99"
               x="68.392578" />
            <use
               style="stroke-width:0.970746"
               height="100%"
               width="100%"
               y="0"
               id="use277"
               xlink:href="#DejaVuSans-99"
               x="123.37305" />
            <use
               style="stroke-width:0.970746"
               height="100%"
               width="100%"
               y="0"
               id="use279"
               xlink:href="#DejaVuSans-117"
               x="178.35352" />
            <use
               style="stroke-width:0.970746"
               height="100%"
               width="100%"
               y="0"
               id="use281"
               xlink:href="#DejaVuSans-114"
               x="241.73242" />
            <use
               style="stroke-width:0.970746"
               height="100%"
               width="100%"
               y="0"
               id="use283"
               xlink:href="#DejaVuSans-97"
               x="282.8457" />
            <use
               style="stroke-width:0.970746"
               height="100%"
               width="100%"
               y="0"
               id="use285"
               xlink:href="#DejaVuSans-99"
               x="344.125" />
            <use
               style="stroke-width:0.970746"
               height="100%"
               width="100%"
               y="0"
               id="use287"
               xlink:href="#DejaVuSans-121"
               x="399.10547" />
          </g>
        </g>
      </g>
      <g
         style="stroke-width:0.970746"
         id="line2d_15">
        <path
           inkscape:connector-curvature="0"
           id="path293"
           style="fill:none;stroke:#1f77b4;stroke-width:1.45612;stroke-linecap:square"
           d="m 69.218545,156.35471 1.089086,-40.474 1.058596,-20.367961 1.064906,-1.702799 1.064738,-8.120996 1.064073,-7.302348 1.056584,-4.551681 1.058439,-1.309841 1.061556,-0.785896 1.05692,3.209088 1.057845,-9.168864 1.057678,1.604564 1.056231,-3.569316 1.0577,-3.143605 1.060581,7.859024 1.056878,-6.549184 1.058636,-1.047869 1.049525,-0.982385 1.055974,-0.720413 1.057666,0.392958 1.056187,-3.569315 1.048755,-0.294704 1.053297,2.979868 1.051017,0.130986 1.044349,0.851399 1.043823,-6.90939 1.028382,4.617164 1.019269,-0.425689 1.018308,0.589427 1.015013,-1.342592 1.013943,1.375343 1.0155,-9.234367 1.01764,0.196488 1.00682,-0.556695 1.00665,-0.196469 1.00928,0.196469 1.01576,-0.196469 1.03014,-0.163738 1.04025,-0.589427 1.04731,1.113371 1.05503,-1.015117 1.05017,0.163718 1.04963,0.42569 1.05729,-0.163718 1.04523,0.06548 1.05212,0.491193 1.0466,-0.589427 1.04969,0.261972 1.04821,-0.458442 1.04621,-0.785896 1.05764,0.163718 1.04851,0.425709 1.04638,0.03273 1.05642,0.09824 1.04536,0.130986 1.04976,0.130986 1.04839,0.03275 1.0482,-0.622179 1.04847,0.196489 1.04402,0.982366 1.04471,-1.113352 1.04754,0.360207 1.04882,0.360187 1.05656,-1.047869 1.05446,0.09825 1.04569,0.720394 1.05336,0.327475 1.04483,-0.785916 1.04374,0.720413 1.04825,-0.785896 1.04544,-0.327456 1.0444,0.458442 1.05029,0.06548 1.0543,-0.130986 1.04229,-0.229221 1.04664,0.196489 1.04496,-0.03275 1.04146,0.360206 1.04593,0.294704 1.04414,-0.03273 h 1.04715 l 1.0482,-0.523944 1.04107,-0.19647 1.0508,0.229221 1.04589,0.294704 1.05064,0.687661 1.04594,-0.22922"
           clip-path="url(#p578d4dad70)" />
      </g>
      <g
         style="stroke-width:0.970746"
         id="line2d_16">
        <path
           inkscape:connector-curvature="0"
           id="path296"
           style="fill:none;stroke:#ff7f0e;stroke-width:1.45612;stroke-dasharray:5.38764, 2.32979;stroke-dashoffset:0"
           d="m 69.218182,206.16131 7.4e-5,-36.97019 2.092228,-19.35284 1.984026,-13.26213 1.954947,-16.63493 1.95075,-4.55168 1.950854,-10.83891 1.936889,-1.21161 1.944932,4.64994 1.9288,-18.796193 1.915517,4.387963 1.807576,-6.385466 1.759991,-0.785897 1.739611,-3.831267 1.726161,1.244338 1.710638,-1.473579 1.720531,-6.123474 1.716096,16.667683 1.719677,-13.687814 1.71608,1.113371 1.72107,-7.531569 1.71849,3.831268 1.71706,1.571813 1.72265,-4.453447 1.72061,-5.665052 1.73378,1.473558 1.7352,1.309841 1.74337,-3.01262 1.75686,1.146103 1.75835,-0.949634 1.75774,2.717916 1.78299,-10.118499 1.75822,-1.277089 1.76835,0.491192 1.77123,0.03273 1.77596,-0.556676 1.7734,0.261973 1.77556,-0.818648 1.79317,-0.229221 1.789,0.884131 1.79182,0.491193 1.80062,-1.50631 1.81259,-0.360207 1.81606,0.19647 1.82594,0.720413 1.81626,-0.916883 1.82608,-0.06548 1.82984,0.491173 1.83682,-0.22922 1.84414,0.130986 1.8632,-0.06548 1.88475,-0.22922 1.88273,0.42569 1.90317,-0.654911 1.89541,1.244338 1.90682,-1.604545 1.89763,0.753146 1.90303,0.622178 1.92642,0.0655 1.91179,-1.571813 1.92117,0.261972 1.92863,0.884132 1.92356,0.753164 1.9313,-2.128488 1.94817,2.586929 1.95808,-0.622178 1.9462,-0.09823 1.94189,-1.375324 1.94758,-0.491192 1.95488,1.113352 1.95276,0.491192 1.95287,-1.768282 1.94653,-0.523924 1.92876,0.589427 h 1.92325 l 1.9261,-0.294723 h 1.92595 l 1.91614,0.294723 1.95127,-0.294723 1.96128,0.327455 1.95416,0.130986 1.96422,-0.327455 1.95783,0.130986 1.94964,-0.261972 1.96233,0.491192 1.96152,0.130986 1.95575,-0.360206"
           clip-path="url(#p578d4dad70)" />
      </g>
      <g
         style="stroke-width:0.970746"
         id="line2d_17">
        <path
           inkscape:connector-curvature="0"
           id="path299"
           style="fill:none;stroke:#2ca02c;stroke-width:1.45612;stroke-dasharray:9.31916, 2.32979, 1.45612, 2.32979;stroke-dashoffset:0"
           d="m 69.218182,219.9801 4.382365,-40.93245 3.861593,-21.71056 3.692006,-21.25211 3.585561,-18.40323 3.547704,-6.1235 3.562614,-8.4157 3.550638,-6.123491 3.549116,-7.171362 3.467311,-0.949634 3.50591,0.622178 3.4071,-6.549203 3.41912,3.831288 3.38676,-1.178855 3.41067,-5.796039 3.41534,-2.586929 3.40466,-0.19647 3.4105,1.801014 3.40987,2.063005 3.41725,-6.287231 3.40982,-0.851399 3.41716,-0.392939 3.39996,-1.833784 3.41676,0.458441 3.52631,-3.700282 3.80144,3.176357 4.02944,-0.392958 4.19796,-2.554178 3.9522,0.42569 3.69879,-2.161221 3.69188,0.884132 3.75526,-7.990011 3.8892,-0.458441 3.87476,-0.556676 3.98625,-0.425709 3.93021,-0.589428 4.07177,0.0655 3.81942,0.229221 3.42581,-1.047869 3.37083,0.916883 3.58636,0.09823 3.39946,-1.015117 3.41809,-0.163737 3.40226,-0.392939 3.39686,0.949615 3.40224,0.88415 3.3948,-1.408075 3.3884,0.06548 3.40043,0.294724 3.42715,-0.360207 3.41814,-0.196469 3.43567,0.687662 3.42823,-0.130986 3.45224,-0.294724 3.4187,-0.589427 3.37166,0.589427 3.38698,-0.42569 3.35423,0.720414 3.36444,-0.392958 3.38914,-0.360207 3.38172,0.229221 3.39714,0.22922 3.39969,0.42571 3.37225,-0.327456 3.38636,-0.425709 3.37736,0.130986 3.39802,1.08062 3.4466,-1.342592 3.43402,0.851399 3.42275,-0.03275 3.4211,-0.06548 3.47772,-0.720414 3.50476,-0.06548 3.52771,-0.294723 3.5274,0.163737 3.54084,0.392939 3.53161,-0.687662 3.55119,0.360206 h 3.53184 l 3.54419,0.03275 3.54759,-0.163738 3.55981,0.09824 3.55936,-0.229221 3.56151,-0.261952 3.55937,-0.229221 3.56404,0.360187 3.55089,0.229221"
           clip-path="url(#p578d4dad70)" />
      </g>
      <g
         style="stroke-width:0.970746"
         id="patch_3">
        <path
           inkscape:connector-curvature="0"
           id="path302"
           style="fill:none;stroke:#000000;stroke-width:0.776597;stroke-linecap:square;stroke-linejoin:miter"
           d="M 54,252 V 34.56" />
      </g>
      <g
         style="stroke-width:0.970746"
         id="patch_4">
        <path
           inkscape:connector-curvature="0"
           id="path305"
           style="fill:none;stroke:#000000;stroke-width:0.776597;stroke-linecap:square;stroke-linejoin:miter"
           d="M 388.8,252 V 34.56" />
      </g>
      <g
         style="stroke-width:0.970746"
         id="patch_5">
        <path
           inkscape:connector-curvature="0"
           id="path308"
           style="fill:none;stroke:#000000;stroke-width:0.776597;stroke-linecap:square;stroke-linejoin:miter"
           d="M 54,252 H 388.8" />
      </g>
      <g
         style="stroke-width:0.970746"
         id="patch_6">
        <path
           inkscape:connector-curvature="0"
           id="path311"
           style="fill:none;stroke:#000000;stroke-width:0.776597;stroke-linecap:square;stroke-linejoin:miter"
           d="M 54,34.56 H 388.8" />
      </g>
      <g
         style="stroke-width:0.970746"
         id="text_10">
        <!-- Test ACC ~ Time (90 Epochs) -->
        <defs
           id="defs317">
          <path
             inkscape:connector-curvature="0"
             id="DejaVuSans-116"
             d="M 18.3125,70.21875 V 54.6875 h 18.5 v -6.984375 h -18.5 v -29.6875 q 0,-6.6875 1.828125,-8.59375 1.828125,-1.90625 7.453125,-1.90625 H 36.8125 V 0 H 27.59375 Q 17.1875,0 13.234375,3.875 9.28125,7.765625 9.28125,18.015625 v 29.6875 H 2.6875 V 54.6875 h 6.59375 v 15.53125 z" />
          <path
             inkscape:connector-curvature="0"
             id="DejaVuSans-67"
             d="M 64.40625,67.28125 V 56.890625 q -4.984375,4.640625 -10.625,6.921875 -5.640625,2.296875 -11.984375,2.296875 -12.5,0 -19.140625,-7.640625 -6.640625,-7.640625 -6.640625,-22.09375 0,-14.40625 6.640625,-22.046875 Q 29.296875,6.6875 41.796875,6.6875 q 6.34375,0 11.984375,2.296875 5.640625,2.296875 10.625,6.9375 V 5.609375 Q 59.234375,2.09375 53.4375,0.328125 q -5.78125,-1.75 -12.21875,-1.75 -16.5625,0 -26.09375,10.125 Q 5.609375,18.84375 5.609375,36.375 q 0,17.578125 9.515625,27.703125 9.53125,10.140625 26.09375,10.140625 6.53125,0 12.3125,-1.734375 5.796875,-1.734375 10.875,-5.203125 z" />
          <path
             inkscape:connector-curvature="0"
             id="DejaVuSans-126"
             d="m 73.1875,39.890625 v -8.6875 q -5.125,-3.859375 -9.5,-5.515625 -4.359375,-1.65625 -9.09375,-1.65625 -5.375,0 -12.5,2.875 -0.546875,0.1875 -0.78125,0.296875 -0.34375,0.140625 -1.078125,0.390625 -7.5625,3.015625 -12.15625,3.015625 -4.296875,0 -8.5,-1.875 -4.203125,-1.875 -8.984375,-5.9375 V 31.5 q 5.125,3.859375 9.5,5.53125 4.375,1.6875 9.109375,1.6875 5.375,0 12.546875,-2.921875 Q 42.234375,35.59375 42.484375,35.5 42.875,35.359375 43.5625,35.109375 q 7.5625,-3.03125 12.15625,-3.03125 4.1875,0 8.3125,1.859375 4.140625,1.859375 9.15625,5.953125 z" />
        </defs>
        <g
           style="stroke-width:0.970746"
           id="g373"
           transform="matrix(0.24,0,0,-0.24,44.311875,28.56)">
          <use
             style="stroke-width:0.970746"
             height="100%"
             width="100%"
             y="0"
             x="0"
             id="use319"
             xlink:href="#DejaVuSans-84" />
          <use
             style="stroke-width:0.970746"
             height="100%"
             width="100%"
             y="0"
             id="use321"
             xlink:href="#DejaVuSans-101"
             x="60.818359" />
          <use
             style="stroke-width:0.970746"
             height="100%"
             width="100%"
             y="0"
             id="use323"
             xlink:href="#DejaVuSans-115"
             x="122.3418" />
          <use
             style="stroke-width:0.970746"
             height="100%"
             width="100%"
             y="0"
             id="use325"
             xlink:href="#DejaVuSans-116"
             x="174.44141" />
          <use
             style="stroke-width:0.970746"
             height="100%"
             width="100%"
             y="0"
             id="use327"
             xlink:href="#DejaVuSans-32"
             x="213.65039" />
          <use
             style="stroke-width:0.970746"
             height="100%"
             width="100%"
             y="0"
             id="use329"
             xlink:href="#DejaVuSans-65"
             x="245.4375" />
          <use
             style="stroke-width:0.970746"
             height="100%"
             width="100%"
             y="0"
             id="use331"
             xlink:href="#DejaVuSans-67"
             x="313.83008" />
          <use
             style="stroke-width:0.970746"
             height="100%"
             width="100%"
             y="0"
             id="use333"
             xlink:href="#DejaVuSans-67"
             x="383.6543" />
          <use
             style="stroke-width:0.970746"
             height="100%"
             width="100%"
             y="0"
             id="use335"
             xlink:href="#DejaVuSans-32"
             x="453.47852" />
          <use
             style="stroke-width:0.970746"
             height="100%"
             width="100%"
             y="0"
             id="use337"
             xlink:href="#DejaVuSans-126"
             x="485.26562" />
          <use
             style="stroke-width:0.970746"
             height="100%"
             width="100%"
             y="0"
             id="use339"
             xlink:href="#DejaVuSans-32"
             x="569.05469" />
          <use
             style="stroke-width:0.970746"
             height="100%"
             width="100%"
             y="0"
             id="use341"
             xlink:href="#DejaVuSans-84"
             x="600.8418" />
          <use
             style="stroke-width:0.970746"
             height="100%"
             width="100%"
             y="0"
             id="use343"
             xlink:href="#DejaVuSans-105"
             x="661.87891" />
          <use
             style="stroke-width:0.970746"
             height="100%"
             width="100%"
             y="0"
             id="use345"
             xlink:href="#DejaVuSans-109"
             x="689.66211" />
          <use
             style="stroke-width:0.970746"
             height="100%"
             width="100%"
             y="0"
             id="use347"
             xlink:href="#DejaVuSans-101"
             x="787.07422" />
          <use
             style="stroke-width:0.970746"
             height="100%"
             width="100%"
             y="0"
             id="use349"
             xlink:href="#DejaVuSans-32"
             x="848.59766" />
          <use
             style="stroke-width:0.970746"
             height="100%"
             width="100%"
             y="0"
             id="use351"
             xlink:href="#DejaVuSans-40"
             x="880.38477" />
          <use
             style="stroke-width:0.970746"
             height="100%"
             width="100%"
             y="0"
             id="use353"
             xlink:href="#DejaVuSans-57"
             x="919.39844" />
          <use
             style="stroke-width:0.970746"
             height="100%"
             width="100%"
             y="0"
             id="use355"
             xlink:href="#DejaVuSans-48"
             x="983.02148" />
          <use
             style="stroke-width:0.970746"
             height="100%"
             width="100%"
             y="0"
             id="use357"
             xlink:href="#DejaVuSans-32"
             x="1046.6445" />
          <use
             style="stroke-width:0.970746"
             height="100%"
             width="100%"
             y="0"
             id="use359"
             xlink:href="#DejaVuSans-69"
             x="1078.4316" />
          <use
             style="stroke-width:0.970746"
             height="100%"
             width="100%"
             y="0"
             id="use361"
             xlink:href="#DejaVuSans-112"
             x="1141.6152" />
          <use
             style="stroke-width:0.970746"
             height="100%"
             width="100%"
             y="0"
             id="use363"
             xlink:href="#DejaVuSans-111"
             x="1205.0918" />
          <use
             style="stroke-width:0.970746"
             height="100%"
             width="100%"
             y="0"
             id="use365"
             xlink:href="#DejaVuSans-99"
             x="1266.2734" />
          <use
             style="stroke-width:0.970746"
             height="100%"
             width="100%"
             y="0"
             id="use367"
             xlink:href="#DejaVuSans-104"
             x="1321.2539" />
          <use
             style="stroke-width:0.970746"
             height="100%"
             width="100%"
             y="0"
             id="use369"
             xlink:href="#DejaVuSans-115"
             x="1384.6328" />
          <use
             style="stroke-width:0.970746"
             height="100%"
             width="100%"
             y="0"
             id="use371"
             xlink:href="#DejaVuSans-41"
             x="1436.7324" />
        </g>
      </g>
      <g
         style="stroke-width:0.970746"
         id="legend_1">
        <g
           style="stroke-width:0.970746"
           id="patch_7">
          <path
             inkscape:connector-curvature="0"
             id="path376"
             style="opacity:0.8;fill:#ffffff;stroke:#cccccc;stroke-width:0.970746;stroke-linejoin:miter"
             d="M 240.55937,242 H 374.8 q 4,0 4,-4 v -86.06875 q 0,-4 -4,-4 H 240.55937 q -4,0 -4,4 V 238 q 0,4 4,4 z" />
        </g>
        <g
           style="stroke-width:0.970746"
           id="line2d_18">
          <path
             inkscape:connector-curvature="0"
             id="path379"
             style="fill:none;stroke:#1f77b4;stroke-width:1.45612;stroke-linecap:square"
             d="m 244.55937,164.12812 h 40" />
        </g>
        <g
           style="stroke-width:0.970746"
           id="line2d_19" />
        <g
           style="stroke-width:0.970746"
           id="text_11">
          <!-- ACA -->
          <g
             style="stroke-width:0.970746"
             id="g389"
             transform="matrix(0.2,0,0,-0.2,300.55937,171.12812)">
            <use
               style="stroke-width:0.970746"
               height="100%"
               width="100%"
               y="0"
               x="0"
               id="use383"
               xlink:href="#DejaVuSans-65" />
            <use
               style="stroke-width:0.970746"
               height="100%"
               width="100%"
               y="0"
               id="use385"
               xlink:href="#DejaVuSans-67"
               x="68.392578" />
            <use
               style="stroke-width:0.970746"
               height="100%"
               width="100%"
               y="0"
               id="use387"
               xlink:href="#DejaVuSans-65"
               x="138.2168" />
          </g>
        </g>
        <g
           style="stroke-width:0.970746"
           id="line2d_20">
          <path
             inkscape:connector-curvature="0"
             id="path392"
             style="fill:none;stroke:#ff7f0e;stroke-width:1.45612;stroke-dasharray:5.38764, 2.32979;stroke-dashoffset:0"
             d="m 244.55937,193.48437 h 40" />
        </g>
        <g
           style="stroke-width:0.970746"
           id="line2d_21" />
        <g
           style="stroke-width:0.970746"
           id="text_12">
          <!-- Adjoint -->
          <defs
             id="defs398">
            <path
               inkscape:connector-curvature="0"
               id="DejaVuSans-100"
               d="m 45.40625,46.390625 v 29.59375 h 8.984375 V 0 H 45.40625 v 8.203125 q -2.828125,-4.875 -7.15625,-7.25 -4.3125,-2.375 -10.375,-2.375 -9.90625,0 -16.140625,7.90625 -6.21875,7.921875 -6.21875,20.8125 0,12.890625 6.21875,20.796875 Q 17.96875,56 27.875,56 q 6.0625,0 10.375,-2.375 4.328125,-2.359375 7.15625,-7.234375 z M 14.796875,27.296875 q 0,-9.90625 4.078125,-15.546875 4.078125,-5.640625 11.203125,-5.640625 7.125,0 11.21875,5.640625 4.109375,5.640625 4.109375,15.546875 0,9.90625 -4.109375,15.546875 -4.09375,5.640625 -11.21875,5.640625 -7.125,0 -11.203125,-5.640625 -4.078125,-5.640625 -4.078125,-15.546875 z" />
            <path
               inkscape:connector-curvature="0"
               id="DejaVuSans-106"
               d="M 9.421875,54.6875 H 18.40625 V -0.984375 q 0,-10.4375 -3.984375,-15.125 -3.96875,-4.6875 -12.8125,-4.6875 H -1.8125 v 7.609375 h 2.40625 q 5.125,0 6.96875,2.375 1.859375,2.359375 1.859375,9.828125 z m 0,21.296875 H 18.40625 V 64.59375 H 9.421875 Z" />
          </defs>
          <g
             style="stroke-width:0.970746"
             id="g414"
             transform="matrix(0.2,0,0,-0.2,300.55937,200.48437)">
            <use
               style="stroke-width:0.970746"
               height="100%"
               width="100%"
               y="0"
               x="0"
               id="use400"
               xlink:href="#DejaVuSans-65" />
            <use
               style="stroke-width:0.970746"
               height="100%"
               width="100%"
               y="0"
               id="use402"
               xlink:href="#DejaVuSans-100"
               x="68.392578" />
            <use
               style="stroke-width:0.970746"
               height="100%"
               width="100%"
               y="0"
               id="use404"
               xlink:href="#DejaVuSans-106"
               x="131.86914" />
            <use
               style="stroke-width:0.970746"
               height="100%"
               width="100%"
               y="0"
               id="use406"
               xlink:href="#DejaVuSans-111"
               x="159.65234" />
            <use
               style="stroke-width:0.970746"
               height="100%"
               width="100%"
               y="0"
               id="use408"
               xlink:href="#DejaVuSans-105"
               x="220.83398" />
            <use
               style="stroke-width:0.970746"
               height="100%"
               width="100%"
               y="0"
               id="use410"
               xlink:href="#DejaVuSans-110"
               x="248.61719" />
            <use
               style="stroke-width:0.970746"
               height="100%"
               width="100%"
               y="0"
               id="use412"
               xlink:href="#DejaVuSans-116"
               x="311.99609" />
          </g>
        </g>
        <g
           style="stroke-width:0.970746"
           id="line2d_22">
          <path
             inkscape:connector-curvature="0"
             id="path417"
             style="fill:none;stroke:#2ca02c;stroke-width:1.45612;stroke-dasharray:9.31916, 2.32979, 1.45612, 2.32979;stroke-dashoffset:0"
             d="m 244.55937,222.84062 h 40" />
        </g>
        <g
           style="stroke-width:0.970746"
           id="line2d_23" />
        <g
           style="stroke-width:0.970746"
           id="text_13">
          <!-- Naive -->
          <defs
             id="defs423">
            <path
               inkscape:connector-curvature="0"
               id="DejaVuSans-78"
               d="M 9.8125,72.90625 H 23.09375 L 55.421875,11.921875 V 72.90625 h 9.5625 V 0 h -13.28125 l -32.3125,60.984375 V 0 H 9.8125 Z" />
            <path
               inkscape:connector-curvature="0"
               id="DejaVuSans-118"
               d="M 2.984375,54.6875 H 12.5 L 29.59375,8.796875 46.6875,54.6875 h 9.515625 L 35.6875,0 H 23.484375 Z" />
          </defs>
          <g
             style="stroke-width:0.970746"
             id="g435"
             transform="matrix(0.2,0,0,-0.2,300.55937,229.84062)">
            <use
               style="stroke-width:0.970746"
               height="100%"
               width="100%"
               y="0"
               x="0"
               id="use425"
               xlink:href="#DejaVuSans-78" />
            <use
               style="stroke-width:0.970746"
               height="100%"
               width="100%"
               y="0"
               id="use427"
               xlink:href="#DejaVuSans-97"
               x="74.804688" />
            <use
               style="stroke-width:0.970746"
               height="100%"
               width="100%"
               y="0"
               id="use429"
               xlink:href="#DejaVuSans-105"
               x="136.08398" />
            <use
               style="stroke-width:0.970746"
               height="100%"
               width="100%"
               y="0"
               id="use431"
               xlink:href="#DejaVuSans-118"
               x="163.86719" />
            <use
               style="stroke-width:0.970746"
               height="100%"
               width="100%"
               y="0"
               id="use433"
               xlink:href="#DejaVuSans-101"
               x="223.04688" />
          </g>
        </g>
      </g>
    </g>
  </g>
  <defs
     id="defs444">
    <clipPath
       id="p578d4dad70">
      <rect
         id="rect441"
         y="34.560001"
         x="54"
         width="334.79999"
         height="217.44" />
    </clipPath>
  </defs>
</svg>
